<?xml version="1.0" encoding="UTF-8" standalone="no"?>
<!-- Created with Inkscape (http://www.inkscape.org/) -->

<svg
   width="210mm"
   height="297mm"
   viewBox="0 0 210 297"
   version="1.1"
   id="svg5"
   inkscape:version="1.1.1 (3bf5ae0d25, 2021-09-20)"
   sodipodi:docname="sample_data_2_XL.svg"
   xmlns:inkscape="http://www.inkscape.org/namespaces/inkscape"
   xmlns:sodipodi="http://sodipodi.sourceforge.net/DTD/sodipodi-0.dtd"
   xmlns:xlink="http://www.w3.org/1999/xlink"
   xmlns="http://www.w3.org/2000/svg"
   xmlns:svg="http://www.w3.org/2000/svg">
  <sodipodi:namedview
     id="namedview7"
     pagecolor="#ffffff"
     bordercolor="#666666"
     borderopacity="1.0"
     inkscape:pageshadow="2"
     inkscape:pageopacity="0.0"
     inkscape:pagecheckerboard="true"
     inkscape:document-units="mm"
     showgrid="false"
     inkscape:zoom="2.096401"
     inkscape:cx="146.44145"
     inkscape:cy="296.46046"
     inkscape:window-width="1920"
     inkscape:window-height="1017"
     inkscape:window-x="-8"
     inkscape:window-y="-8"
     inkscape:window-maximized="1"
     inkscape:current-layer="layer1" />
  <defs
     id="defs2">
    <style
       type="text/css"
       id="style11">*{stroke-linecap:butt;stroke-linejoin:round;}</style>
    <path
       d="M 0 0  L 0 3.5  "
       id="m2bff23cfdb"
       style="stroke:#000000;stroke-width:0.8;" />
    <path
       d="M 794 531  L 1825 531  L 1825 4091  L 703 3866  L 703 4441  L 1819 4666  L 2450 4666  L 2450 531  L 3481 531  L 3481 0  L 794 0  L 794 531  z "
       id="DejaVuSans-31"
       transform="scale(0.015625)" />
    <path
       d="M 1228 531  L 3431 531  L 3431 0  L 469 0  L 469 531  Q 828 903 1448 1529  Q 2069 2156 2228 2338  Q 2531 2678 2651 2914  Q 2772 3150 2772 3378  Q 2772 3750 2511 3984  Q 2250 4219 1831 4219  Q 1534 4219 1204 4116  Q 875 4013 500 3803  L 500 4441  Q 881 4594 1212 4672  Q 1544 4750 1819 4750  Q 2544 4750 2975 4387  Q 3406 4025 3406 3419  Q 3406 3131 3298 2873  Q 3191 2616 2906 2266  Q 2828 2175 2409 1742  Q 1991 1309 1228 531  z "
       id="DejaVuSans-32"
       transform="scale(0.015625)" />
    <path
       d="M 0 0  L -3.5 0  "
       id="m8bceb0e391"
       style="stroke:#000000;stroke-width:0.8;" />
    <path
       d="M 2034 4250  Q 1547 4250 1301 3770  Q 1056 3291 1056 2328  Q 1056 1369 1301 889  Q 1547 409 2034 409  Q 2525 409 2770 889  Q 3016 1369 3016 2328  Q 3016 3291 2770 3770  Q 2525 4250 2034 4250  z M 2034 4750  Q 2819 4750 3233 4129  Q 3647 3509 3647 2328  Q 3647 1150 3233 529  Q 2819 -91 2034 -91  Q 1250 -91 836 529  Q 422 1150 422 2328  Q 422 3509 836 4129  Q 1250 4750 2034 4750  z "
       id="DejaVuSans-30"
       transform="scale(0.015625)" />
    <path
       d="M 684 794  L 1344 794  L 1344 0  L 684 0  L 684 794  z "
       id="DejaVuSans-2e"
       transform="scale(0.015625)" />
    <path
       d="M 2419 4116  L 825 1625  L 2419 1625  L 2419 4116  z M 2253 4666  L 3047 4666  L 3047 1625  L 3713 1625  L 3713 1100  L 3047 1100  L 3047 0  L 2419 0  L 2419 1100  L 313 1100  L 313 1709  L 2253 4666  z "
       id="DejaVuSans-34"
       transform="scale(0.015625)" />
    <path
       d="M 2113 2584  Q 1688 2584 1439 2293  Q 1191 2003 1191 1497  Q 1191 994 1439 701  Q 1688 409 2113 409  Q 2538 409 2786 701  Q 3034 994 3034 1497  Q 3034 2003 2786 2293  Q 2538 2584 2113 2584  z M 3366 4563  L 3366 3988  Q 3128 4100 2886 4159  Q 2644 4219 2406 4219  Q 1781 4219 1451 3797  Q 1122 3375 1075 2522  Q 1259 2794 1537 2939  Q 1816 3084 2150 3084  Q 2853 3084 3261 2657  Q 3669 2231 3669 1497  Q 3669 778 3244 343  Q 2819 -91 2113 -91  Q 1303 -91 875 529  Q 447 1150 447 2328  Q 447 3434 972 4092  Q 1497 4750 2381 4750  Q 2619 4750 2861 4703  Q 3103 4656 3366 4563  z "
       id="DejaVuSans-36"
       transform="scale(0.015625)" />
    <path
       d="M 2034 2216  Q 1584 2216 1326 1975  Q 1069 1734 1069 1313  Q 1069 891 1326 650  Q 1584 409 2034 409  Q 2484 409 2743 651  Q 3003 894 3003 1313  Q 3003 1734 2745 1975  Q 2488 2216 2034 2216  z M 1403 2484  Q 997 2584 770 2862  Q 544 3141 544 3541  Q 544 4100 942 4425  Q 1341 4750 2034 4750  Q 2731 4750 3128 4425  Q 3525 4100 3525 3541  Q 3525 3141 3298 2862  Q 3072 2584 2669 2484  Q 3125 2378 3379 2068  Q 3634 1759 3634 1313  Q 3634 634 3220 271  Q 2806 -91 2034 -91  Q 1263 -91 848 271  Q 434 634 434 1313  Q 434 1759 690 2068  Q 947 2378 1403 2484  z M 1172 3481  Q 1172 3119 1398 2916  Q 1625 2713 2034 2713  Q 2441 2713 2670 2916  Q 2900 3119 2900 3481  Q 2900 3844 2670 4047  Q 2441 4250 2034 4250  Q 1625 4250 1398 4047  Q 1172 3844 1172 3481  z "
       id="DejaVuSans-38"
       transform="scale(0.015625)" />
    <path
       d="M 1259 2228  L 1259 519  L 2272 519  Q 2781 519 3026 730  Q 3272 941 3272 1375  Q 3272 1813 3026 2020  Q 2781 2228 2272 2228  L 1259 2228  z M 1259 4147  L 1259 2741  L 2194 2741  Q 2656 2741 2882 2914  Q 3109 3088 3109 3444  Q 3109 3797 2882 3972  Q 2656 4147 2194 4147  L 1259 4147  z M 628 4666  L 2241 4666  Q 2963 4666 3353 4366  Q 3744 4066 3744 3513  Q 3744 3084 3544 2831  Q 3344 2578 2956 2516  Q 3422 2416 3680 2098  Q 3938 1781 3938 1306  Q 3938 681 3513 340  Q 3088 0 2303 0  L 628 0  L 628 4666  z "
       id="DejaVuSans-42"
       transform="scale(0.015625)" />
    <path
       d="M 2194 1759  Q 1497 1759 1228 1600  Q 959 1441 959 1056  Q 959 750 1161 570  Q 1363 391 1709 391  Q 2188 391 2477 730  Q 2766 1069 2766 1631  L 2766 1759  L 2194 1759  z M 3341 1997  L 3341 0  L 2766 0  L 2766 531  Q 2569 213 2275 61  Q 1981 -91 1556 -91  Q 1019 -91 701 211  Q 384 513 384 1019  Q 384 1609 779 1909  Q 1175 2209 1959 2209  L 2766 2209  L 2766 2266  Q 2766 2663 2505 2880  Q 2244 3097 1772 3097  Q 1472 3097 1187 3025  Q 903 2953 641 2809  L 641 3341  Q 956 3463 1253 3523  Q 1550 3584 1831 3584  Q 2591 3584 2966 3190  Q 3341 2797 3341 1997  z "
       id="DejaVuSans-61"
       transform="scale(0.015625)" />
    <path
       d="M 3513 2113  L 3513 0  L 2938 0  L 2938 2094  Q 2938 2591 2744 2837  Q 2550 3084 2163 3084  Q 1697 3084 1428 2787  Q 1159 2491 1159 1978  L 1159 0  L 581 0  L 581 3500  L 1159 3500  L 1159 2956  Q 1366 3272 1645 3428  Q 1925 3584 2291 3584  Q 2894 3584 3203 3211  Q 3513 2838 3513 2113  z "
       id="DejaVuSans-6e"
       transform="scale(0.015625)" />
    <path
       d="M 2906 2969  L 2906 4863  L 3481 4863  L 3481 0  L 2906 0  L 2906 525  Q 2725 213 2448 61  Q 2172 -91 1784 -91  Q 1150 -91 751 415  Q 353 922 353 1747  Q 353 2572 751 3078  Q 1150 3584 1784 3584  Q 2172 3584 2448 3432  Q 2725 3281 2906 2969  z M 947 1747  Q 947 1113 1208 752  Q 1469 391 1925 391  Q 2381 391 2643 752  Q 2906 1113 2906 1747  Q 2906 2381 2643 2742  Q 2381 3103 1925 3103  Q 1469 3103 1208 2742  Q 947 2381 947 1747  z "
       id="DejaVuSans-64"
       transform="scale(0.015625)" />
    <path
       d="M 269 3500  L 844 3500  L 1563 769  L 2278 3500  L 2956 3500  L 3675 769  L 4391 3500  L 4966 3500  L 4050 0  L 3372 0  L 2619 2869  L 1863 0  L 1184 0  L 269 3500  z "
       id="DejaVuSans-77"
       transform="scale(0.015625)" />
    <path
       d="M 603 3500  L 1178 3500  L 1178 0  L 603 0  L 603 3500  z M 603 4863  L 1178 4863  L 1178 4134  L 603 4134  L 603 4863  z "
       id="DejaVuSans-69"
       transform="scale(0.015625)" />
    <path
       d="M 1172 4494  L 1172 3500  L 2356 3500  L 2356 3053  L 1172 3053  L 1172 1153  Q 1172 725 1289 603  Q 1406 481 1766 481  L 2356 481  L 2356 0  L 1766 0  Q 1100 0 847 248  Q 594 497 594 1153  L 594 3053  L 172 3053  L 172 3500  L 594 3500  L 594 4494  L 1172 4494  z "
       id="DejaVuSans-74"
       transform="scale(0.015625)" />
    <path
       d="M 3513 2113  L 3513 0  L 2938 0  L 2938 2094  Q 2938 2591 2744 2837  Q 2550 3084 2163 3084  Q 1697 3084 1428 2787  Q 1159 2491 1159 1978  L 1159 0  L 581 0  L 581 4863  L 1159 4863  L 1159 2956  Q 1366 3272 1645 3428  Q 1925 3584 2291 3584  Q 2894 3584 3203 3211  Q 3513 2838 3513 2113  z "
       id="DejaVuSans-68"
       transform="scale(0.015625)" />
    <path
       id="DejaVuSans-20"
       transform="scale(0.015625)" />
    <path
       d="M 550 4863  L 1875 4863  L 1875 4416  L 1125 4416  L 1125 -397  L 1875 -397  L 1875 -844  L 550 -844  L 550 4863  z "
       id="DejaVuSans-5b"
       transform="scale(0.015625)" />
    <path
       d="M 628 4666  L 1569 4666  L 2759 1491  L 3956 4666  L 4897 4666  L 4897 0  L 4281 0  L 4281 4097  L 3078 897  L 2444 897  L 1241 4097  L 1241 0  L 628 0  L 628 4666  z "
       id="DejaVuSans-4d"
       transform="scale(0.015625)" />
    <path
       d="M 3116 1747  Q 3116 2381 2855 2742  Q 2594 3103 2138 3103  Q 1681 3103 1420 2742  Q 1159 2381 1159 1747  Q 1159 1113 1420 752  Q 1681 391 2138 391  Q 2594 391 2855 752  Q 3116 1113 3116 1747  z M 1159 2969  Q 1341 3281 1617 3432  Q 1894 3584 2278 3584  Q 2916 3584 3314 3078  Q 3713 2572 3713 1747  Q 3713 922 3314 415  Q 2916 -91 2278 -91  Q 1894 -91 1617 61  Q 1341 213 1159 525  L 1159 0  L 581 0  L 581 4863  L 1159 4863  L 1159 2969  z "
       id="DejaVuSans-62"
       transform="scale(0.015625)" />
    <path
       d="M 1625 4666  L 2156 4666  L 531 -594  L 0 -594  L 1625 4666  z "
       id="DejaVuSans-2f"
       transform="scale(0.015625)" />
    <path
       d="M 2834 3397  L 2834 2853  Q 2591 2978 2328 3040  Q 2066 3103 1784 3103  Q 1356 3103 1142 2972  Q 928 2841 928 2578  Q 928 2378 1081 2264  Q 1234 2150 1697 2047  L 1894 2003  Q 2506 1872 2764 1633  Q 3022 1394 3022 966  Q 3022 478 2636 193  Q 2250 -91 1575 -91  Q 1294 -91 989 -36  Q 684 19 347 128  L 347 722  Q 666 556 975 473  Q 1284 391 1588 391  Q 1994 391 2212 530  Q 2431 669 2431 922  Q 2431 1156 2273 1281  Q 2116 1406 1581 1522  L 1381 1569  Q 847 1681 609 1914  Q 372 2147 372 2553  Q 372 3047 722 3315  Q 1072 3584 1716 3584  Q 2034 3584 2315 3537  Q 2597 3491 2834 3397  z "
       id="DejaVuSans-73"
       transform="scale(0.015625)" />
    <path
       d="M 3597 1894  L 3597 1613  L 953 1613  Q 991 1019 1311 708  Q 1631 397 2203 397  Q 2534 397 2845 478  Q 3156 559 3463 722  L 3463 178  Q 3153 47 2828 -22  Q 2503 -91 2169 -91  Q 1331 -91 842 396  Q 353 884 353 1716  Q 353 2575 817 3079  Q 1281 3584 2069 3584  Q 2775 3584 3186 3129  Q 3597 2675 3597 1894  z M 3022 2063  Q 3016 2534 2758 2815  Q 2500 3097 2075 3097  Q 1594 3097 1305 2825  Q 1016 2553 972 2059  L 3022 2063  z "
       id="DejaVuSans-65"
       transform="scale(0.015625)" />
    <path
       d="M 3122 3366  L 3122 2828  Q 2878 2963 2633 3030  Q 2388 3097 2138 3097  Q 1578 3097 1268 2742  Q 959 2388 959 1747  Q 959 1106 1268 751  Q 1578 397 2138 397  Q 2388 397 2633 464  Q 2878 531 3122 666  L 3122 134  Q 2881 22 2623 -34  Q 2366 -91 2075 -91  Q 1284 -91 818 406  Q 353 903 353 1747  Q 353 2603 823 3093  Q 1294 3584 2113 3584  Q 2378 3584 2631 3529  Q 2884 3475 3122 3366  z "
       id="DejaVuSans-63"
       transform="scale(0.015625)" />
    <path
       d="M 1947 4863  L 1947 -844  L 622 -844  L 622 -397  L 1369 -397  L 1369 4416  L 622 4416  L 622 4863  L 1947 4863  z "
       id="DejaVuSans-5d"
       transform="scale(0.015625)" />
    <path
       d="M 0 -3  L -3 3  L 3 3  z "
       id="m875fff32fa"
       style="stroke:#2ca02c;stroke-linejoin:miter;" />
    <path
       d="M 544 1381  L 544 3500  L 1119 3500  L 1119 1403  Q 1119 906 1312 657  Q 1506 409 1894 409  Q 2359 409 2629 706  Q 2900 1003 2900 1516  L 2900 3500  L 3475 3500  L 3475 0  L 2900 0  L 2900 538  Q 2691 219 2414 64  Q 2138 -91 1772 -91  Q 1169 -91 856 284  Q 544 659 544 1381  z M 1991 3584  L 1991 3584  z "
       id="DejaVuSans-75"
       transform="scale(0.015625)" />
    <path
       d="M 2631 2963  Q 2534 3019 2420 3045  Q 2306 3072 2169 3072  Q 1681 3072 1420 2755  Q 1159 2438 1159 1844  L 1159 0  L 581 0  L 581 3500  L 1159 3500  L 1159 2956  Q 1341 3275 1631 3429  Q 1922 3584 2338 3584  Q 2397 3584 2469 3576  Q 2541 3569 2628 3553  L 2631 2963  z "
       id="DejaVuSans-72"
       transform="scale(0.015625)" />
    <path
       d="M 3328 2828  Q 3544 3216 3844 3400  Q 4144 3584 4550 3584  Q 5097 3584 5394 3201  Q 5691 2819 5691 2113  L 5691 0  L 5113 0  L 5113 2094  Q 5113 2597 4934 2840  Q 4756 3084 4391 3084  Q 3944 3084 3684 2787  Q 3425 2491 3425 1978  L 3425 0  L 2847 0  L 2847 2094  Q 2847 2600 2669 2842  Q 2491 3084 2119 3084  Q 1678 3084 1418 2786  Q 1159 2488 1159 1978  L 1159 0  L 581 0  L 581 3500  L 1159 3500  L 1159 2956  Q 1356 3278 1631 3431  Q 1906 3584 2284 3584  Q 2666 3584 2933 3390  Q 3200 3197 3328 2828  z "
       id="DejaVuSans-6d"
       transform="scale(0.015625)" />
    <clipPath
       id="p0430f681f6">
      <rect
         height="217.44"
         width="334.8"
         x="54"
         y="34.56"
         id="rect369" />
    </clipPath>
    <style
       type="text/css"
       id="style664">*{stroke-linecap:butt;stroke-linejoin:round;}</style>
    <path
       d="M 0 0  L 0 3.5  "
       id="m4db5f5d99a"
       style="stroke:#000000;stroke-width:0.8;" />
    <path
       d="M 794 531  L 1825 531  L 1825 4091  L 703 3866  L 703 4441  L 1819 4666  L 2450 4666  L 2450 531  L 3481 531  L 3481 0  L 794 0  L 794 531  z "
       id="DejaVuSans-31-5"
       transform="scale(0.015625)" />
    <path
       d="M 1228 531  L 3431 531  L 3431 0  L 469 0  L 469 531  Q 828 903 1448 1529  Q 2069 2156 2228 2338  Q 2531 2678 2651 2914  Q 2772 3150 2772 3378  Q 2772 3750 2511 3984  Q 2250 4219 1831 4219  Q 1534 4219 1204 4116  Q 875 4013 500 3803  L 500 4441  Q 881 4594 1212 4672  Q 1544 4750 1819 4750  Q 2544 4750 2975 4387  Q 3406 4025 3406 3419  Q 3406 3131 3298 2873  Q 3191 2616 2906 2266  Q 2828 2175 2409 1742  Q 1991 1309 1228 531  z "
       id="DejaVuSans-32-1"
       transform="scale(0.015625)" />
    <path
       d="M 0 0  L -3.5 0  "
       id="mdd79c0947a"
       style="stroke:#000000;stroke-width:0.8;" />
    <path
       d="M 2034 4250  Q 1547 4250 1301 3770  Q 1056 3291 1056 2328  Q 1056 1369 1301 889  Q 1547 409 2034 409  Q 2525 409 2770 889  Q 3016 1369 3016 2328  Q 3016 3291 2770 3770  Q 2525 4250 2034 4250  z M 2034 4750  Q 2819 4750 3233 4129  Q 3647 3509 3647 2328  Q 3647 1150 3233 529  Q 2819 -91 2034 -91  Q 1250 -91 836 529  Q 422 1150 422 2328  Q 422 3509 836 4129  Q 1250 4750 2034 4750  z "
       id="DejaVuSans-30-4"
       transform="scale(0.015625)" />
    <path
       d="M 684 794  L 1344 794  L 1344 0  L 684 0  L 684 794  z "
       id="DejaVuSans-2e-3"
       transform="scale(0.015625)" />
    <path
       d="M 2419 4116  L 825 1625  L 2419 1625  L 2419 4116  z M 2253 4666  L 3047 4666  L 3047 1625  L 3713 1625  L 3713 1100  L 3047 1100  L 3047 0  L 2419 0  L 2419 1100  L 313 1100  L 313 1709  L 2253 4666  z "
       id="DejaVuSans-34-2"
       transform="scale(0.015625)" />
    <path
       d="M 2113 2584  Q 1688 2584 1439 2293  Q 1191 2003 1191 1497  Q 1191 994 1439 701  Q 1688 409 2113 409  Q 2538 409 2786 701  Q 3034 994 3034 1497  Q 3034 2003 2786 2293  Q 2538 2584 2113 2584  z M 3366 4563  L 3366 3988  Q 3128 4100 2886 4159  Q 2644 4219 2406 4219  Q 1781 4219 1451 3797  Q 1122 3375 1075 2522  Q 1259 2794 1537 2939  Q 1816 3084 2150 3084  Q 2853 3084 3261 2657  Q 3669 2231 3669 1497  Q 3669 778 3244 343  Q 2819 -91 2113 -91  Q 1303 -91 875 529  Q 447 1150 447 2328  Q 447 3434 972 4092  Q 1497 4750 2381 4750  Q 2619 4750 2861 4703  Q 3103 4656 3366 4563  z "
       id="DejaVuSans-36-9"
       transform="scale(0.015625)" />
    <path
       d="M 2034 2216  Q 1584 2216 1326 1975  Q 1069 1734 1069 1313  Q 1069 891 1326 650  Q 1584 409 2034 409  Q 2484 409 2743 651  Q 3003 894 3003 1313  Q 3003 1734 2745 1975  Q 2488 2216 2034 2216  z M 1403 2484  Q 997 2584 770 2862  Q 544 3141 544 3541  Q 544 4100 942 4425  Q 1341 4750 2034 4750  Q 2731 4750 3128 4425  Q 3525 4100 3525 3541  Q 3525 3141 3298 2862  Q 3072 2584 2669 2484  Q 3125 2378 3379 2068  Q 3634 1759 3634 1313  Q 3634 634 3220 271  Q 2806 -91 2034 -91  Q 1263 -91 848 271  Q 434 634 434 1313  Q 434 1759 690 2068  Q 947 2378 1403 2484  z M 1172 3481  Q 1172 3119 1398 2916  Q 1625 2713 2034 2713  Q 2441 2713 2670 2916  Q 2900 3119 2900 3481  Q 2900 3844 2670 4047  Q 2441 4250 2034 4250  Q 1625 4250 1398 4047  Q 1172 3844 1172 3481  z "
       id="DejaVuSans-38-1"
       transform="scale(0.015625)" />
    <path
       d="M 1259 2228  L 1259 519  L 2272 519  Q 2781 519 3026 730  Q 3272 941 3272 1375  Q 3272 1813 3026 2020  Q 2781 2228 2272 2228  L 1259 2228  z M 1259 4147  L 1259 2741  L 2194 2741  Q 2656 2741 2882 2914  Q 3109 3088 3109 3444  Q 3109 3797 2882 3972  Q 2656 4147 2194 4147  L 1259 4147  z M 628 4666  L 2241 4666  Q 2963 4666 3353 4366  Q 3744 4066 3744 3513  Q 3744 3084 3544 2831  Q 3344 2578 2956 2516  Q 3422 2416 3680 2098  Q 3938 1781 3938 1306  Q 3938 681 3513 340  Q 3088 0 2303 0  L 628 0  L 628 4666  z "
       id="DejaVuSans-42-9"
       transform="scale(0.015625)" />
    <path
       d="M 2194 1759  Q 1497 1759 1228 1600  Q 959 1441 959 1056  Q 959 750 1161 570  Q 1363 391 1709 391  Q 2188 391 2477 730  Q 2766 1069 2766 1631  L 2766 1759  L 2194 1759  z M 3341 1997  L 3341 0  L 2766 0  L 2766 531  Q 2569 213 2275 61  Q 1981 -91 1556 -91  Q 1019 -91 701 211  Q 384 513 384 1019  Q 384 1609 779 1909  Q 1175 2209 1959 2209  L 2766 2209  L 2766 2266  Q 2766 2663 2505 2880  Q 2244 3097 1772 3097  Q 1472 3097 1187 3025  Q 903 2953 641 2809  L 641 3341  Q 956 3463 1253 3523  Q 1550 3584 1831 3584  Q 2591 3584 2966 3190  Q 3341 2797 3341 1997  z "
       id="DejaVuSans-61-1"
       transform="scale(0.015625)" />
    <path
       d="M 3513 2113  L 3513 0  L 2938 0  L 2938 2094  Q 2938 2591 2744 2837  Q 2550 3084 2163 3084  Q 1697 3084 1428 2787  Q 1159 2491 1159 1978  L 1159 0  L 581 0  L 581 3500  L 1159 3500  L 1159 2956  Q 1366 3272 1645 3428  Q 1925 3584 2291 3584  Q 2894 3584 3203 3211  Q 3513 2838 3513 2113  z "
       id="DejaVuSans-6e-7"
       transform="scale(0.015625)" />
    <path
       d="M 2906 2969  L 2906 4863  L 3481 4863  L 3481 0  L 2906 0  L 2906 525  Q 2725 213 2448 61  Q 2172 -91 1784 -91  Q 1150 -91 751 415  Q 353 922 353 1747  Q 353 2572 751 3078  Q 1150 3584 1784 3584  Q 2172 3584 2448 3432  Q 2725 3281 2906 2969  z M 947 1747  Q 947 1113 1208 752  Q 1469 391 1925 391  Q 2381 391 2643 752  Q 2906 1113 2906 1747  Q 2906 2381 2643 2742  Q 2381 3103 1925 3103  Q 1469 3103 1208 2742  Q 947 2381 947 1747  z "
       id="DejaVuSans-64-7"
       transform="scale(0.015625)" />
    <path
       d="M 269 3500  L 844 3500  L 1563 769  L 2278 3500  L 2956 3500  L 3675 769  L 4391 3500  L 4966 3500  L 4050 0  L 3372 0  L 2619 2869  L 1863 0  L 1184 0  L 269 3500  z "
       id="DejaVuSans-77-2"
       transform="scale(0.015625)" />
    <path
       d="M 603 3500  L 1178 3500  L 1178 0  L 603 0  L 603 3500  z M 603 4863  L 1178 4863  L 1178 4134  L 603 4134  L 603 4863  z "
       id="DejaVuSans-69-5"
       transform="scale(0.015625)" />
    <path
       d="M 1172 4494  L 1172 3500  L 2356 3500  L 2356 3053  L 1172 3053  L 1172 1153  Q 1172 725 1289 603  Q 1406 481 1766 481  L 2356 481  L 2356 0  L 1766 0  Q 1100 0 847 248  Q 594 497 594 1153  L 594 3053  L 172 3053  L 172 3500  L 594 3500  L 594 4494  L 1172 4494  z "
       id="DejaVuSans-74-9"
       transform="scale(0.015625)" />
    <path
       d="M 3513 2113  L 3513 0  L 2938 0  L 2938 2094  Q 2938 2591 2744 2837  Q 2550 3084 2163 3084  Q 1697 3084 1428 2787  Q 1159 2491 1159 1978  L 1159 0  L 581 0  L 581 4863  L 1159 4863  L 1159 2956  Q 1366 3272 1645 3428  Q 1925 3584 2291 3584  Q 2894 3584 3203 3211  Q 3513 2838 3513 2113  z "
       id="DejaVuSans-68-5"
       transform="scale(0.015625)" />
    <path
       id="DejaVuSans-20-4"
       transform="scale(0.015625)" />
    <path
       d="M 550 4863  L 1875 4863  L 1875 4416  L 1125 4416  L 1125 -397  L 1875 -397  L 1875 -844  L 550 -844  L 550 4863  z "
       id="DejaVuSans-5b-4"
       transform="scale(0.015625)" />
    <path
       d="M 628 4666  L 1569 4666  L 2759 1491  L 3956 4666  L 4897 4666  L 4897 0  L 4281 0  L 4281 4097  L 3078 897  L 2444 897  L 1241 4097  L 1241 0  L 628 0  L 628 4666  z "
       id="DejaVuSans-4d-7"
       transform="scale(0.015625)" />
    <path
       d="M 3116 1747  Q 3116 2381 2855 2742  Q 2594 3103 2138 3103  Q 1681 3103 1420 2742  Q 1159 2381 1159 1747  Q 1159 1113 1420 752  Q 1681 391 2138 391  Q 2594 391 2855 752  Q 3116 1113 3116 1747  z M 1159 2969  Q 1341 3281 1617 3432  Q 1894 3584 2278 3584  Q 2916 3584 3314 3078  Q 3713 2572 3713 1747  Q 3713 922 3314 415  Q 2916 -91 2278 -91  Q 1894 -91 1617 61  Q 1341 213 1159 525  L 1159 0  L 581 0  L 581 4863  L 1159 4863  L 1159 2969  z "
       id="DejaVuSans-62-6"
       transform="scale(0.015625)" />
    <path
       d="M 1625 4666  L 2156 4666  L 531 -594  L 0 -594  L 1625 4666  z "
       id="DejaVuSans-2f-9"
       transform="scale(0.015625)" />
    <path
       d="M 2834 3397  L 2834 2853  Q 2591 2978 2328 3040  Q 2066 3103 1784 3103  Q 1356 3103 1142 2972  Q 928 2841 928 2578  Q 928 2378 1081 2264  Q 1234 2150 1697 2047  L 1894 2003  Q 2506 1872 2764 1633  Q 3022 1394 3022 966  Q 3022 478 2636 193  Q 2250 -91 1575 -91  Q 1294 -91 989 -36  Q 684 19 347 128  L 347 722  Q 666 556 975 473  Q 1284 391 1588 391  Q 1994 391 2212 530  Q 2431 669 2431 922  Q 2431 1156 2273 1281  Q 2116 1406 1581 1522  L 1381 1569  Q 847 1681 609 1914  Q 372 2147 372 2553  Q 372 3047 722 3315  Q 1072 3584 1716 3584  Q 2034 3584 2315 3537  Q 2597 3491 2834 3397  z "
       id="DejaVuSans-73-8"
       transform="scale(0.015625)" />
    <path
       d="M 3597 1894  L 3597 1613  L 953 1613  Q 991 1019 1311 708  Q 1631 397 2203 397  Q 2534 397 2845 478  Q 3156 559 3463 722  L 3463 178  Q 3153 47 2828 -22  Q 2503 -91 2169 -91  Q 1331 -91 842 396  Q 353 884 353 1716  Q 353 2575 817 3079  Q 1281 3584 2069 3584  Q 2775 3584 3186 3129  Q 3597 2675 3597 1894  z M 3022 2063  Q 3016 2534 2758 2815  Q 2500 3097 2075 3097  Q 1594 3097 1305 2825  Q 1016 2553 972 2059  L 3022 2063  z "
       id="DejaVuSans-65-5"
       transform="scale(0.015625)" />
    <path
       d="M 3122 3366  L 3122 2828  Q 2878 2963 2633 3030  Q 2388 3097 2138 3097  Q 1578 3097 1268 2742  Q 959 2388 959 1747  Q 959 1106 1268 751  Q 1578 397 2138 397  Q 2388 397 2633 464  Q 2878 531 3122 666  L 3122 134  Q 2881 22 2623 -34  Q 2366 -91 2075 -91  Q 1284 -91 818 406  Q 353 903 353 1747  Q 353 2603 823 3093  Q 1294 3584 2113 3584  Q 2378 3584 2631 3529  Q 2884 3475 3122 3366  z "
       id="DejaVuSans-63-9"
       transform="scale(0.015625)" />
    <path
       d="M 1947 4863  L 1947 -844  L 622 -844  L 622 -397  L 1369 -397  L 1369 4416  L 622 4416  L 622 4863  L 1947 4863  z "
       id="DejaVuSans-5d-9"
       transform="scale(0.015625)" />
    <path
       d="M 0 -3  L -3 3  L 3 3  z "
       id="m1a950c8dc9"
       style="stroke:#2ca02c;stroke-linejoin:miter;" />
    <path
       d="M 544 1381  L 544 3500  L 1119 3500  L 1119 1403  Q 1119 906 1312 657  Q 1506 409 1894 409  Q 2359 409 2629 706  Q 2900 1003 2900 1516  L 2900 3500  L 3475 3500  L 3475 0  L 2900 0  L 2900 538  Q 2691 219 2414 64  Q 2138 -91 1772 -91  Q 1169 -91 856 284  Q 544 659 544 1381  z M 1991 3584  L 1991 3584  z "
       id="DejaVuSans-75-3"
       transform="scale(0.015625)" />
    <path
       d="M 2631 2963  Q 2534 3019 2420 3045  Q 2306 3072 2169 3072  Q 1681 3072 1420 2755  Q 1159 2438 1159 1844  L 1159 0  L 581 0  L 581 3500  L 1159 3500  L 1159 2956  Q 1341 3275 1631 3429  Q 1922 3584 2338 3584  Q 2397 3584 2469 3576  Q 2541 3569 2628 3553  L 2631 2963  z "
       id="DejaVuSans-72-8"
       transform="scale(0.015625)" />
    <path
       d="M 3328 2828  Q 3544 3216 3844 3400  Q 4144 3584 4550 3584  Q 5097 3584 5394 3201  Q 5691 2819 5691 2113  L 5691 0  L 5113 0  L 5113 2094  Q 5113 2597 4934 2840  Q 4756 3084 4391 3084  Q 3944 3084 3684 2787  Q 3425 2491 3425 1978  L 3425 0  L 2847 0  L 2847 2094  Q 2847 2600 2669 2842  Q 2491 3084 2119 3084  Q 1678 3084 1418 2786  Q 1159 2488 1159 1978  L 1159 0  L 581 0  L 581 3500  L 1159 3500  L 1159 2956  Q 1356 3278 1631 3431  Q 1906 3584 2284 3584  Q 2666 3584 2933 3390  Q 3200 3197 3328 2828  z "
       id="DejaVuSans-6d-2"
       transform="scale(0.015625)" />
    <clipPath
       id="p09c64ef3d2">
      <rect
         height="217.44"
         width="334.8"
         x="54"
         y="34.56"
         id="rect1022" />
    </clipPath>
    <defs
       id="defs943">
      <path
         d="M 0,-3 -3,3 H 3 Z"
         id="path1264"
         style="stroke:#2ca02c;stroke-linejoin:miter" />
    </defs>
    <style
       type="text/css"
       id="style11282">*{stroke-linecap:butt;stroke-linejoin:round;}</style>
    <path
       d="M 0 0  L 0 3.5  "
       id="m2bff23cfdb-5"
       style="stroke:#000000;stroke-width:0.8;" />
    <path
       d="M 794 531  L 1825 531  L 1825 4091  L 703 3866  L 703 4441  L 1819 4666  L 2450 4666  L 2450 531  L 3481 531  L 3481 0  L 794 0  L 794 531  z "
       id="DejaVuSans-31-6"
       transform="scale(0.015625)" />
    <path
       d="M 1228 531  L 3431 531  L 3431 0  L 469 0  L 469 531  Q 828 903 1448 1529  Q 2069 2156 2228 2338  Q 2531 2678 2651 2914  Q 2772 3150 2772 3378  Q 2772 3750 2511 3984  Q 2250 4219 1831 4219  Q 1534 4219 1204 4116  Q 875 4013 500 3803  L 500 4441  Q 881 4594 1212 4672  Q 1544 4750 1819 4750  Q 2544 4750 2975 4387  Q 3406 4025 3406 3419  Q 3406 3131 3298 2873  Q 3191 2616 2906 2266  Q 2828 2175 2409 1742  Q 1991 1309 1228 531  z "
       id="DejaVuSans-32-7"
       transform="scale(0.015625)" />
    <path
       d="M 0 0  L -3.5 0  "
       id="m8bceb0e391-4"
       style="stroke:#000000;stroke-width:0.8;" />
    <path
       d="M 2034 4250  Q 1547 4250 1301 3770  Q 1056 3291 1056 2328  Q 1056 1369 1301 889  Q 1547 409 2034 409  Q 2525 409 2770 889  Q 3016 1369 3016 2328  Q 3016 3291 2770 3770  Q 2525 4250 2034 4250  z M 2034 4750  Q 2819 4750 3233 4129  Q 3647 3509 3647 2328  Q 3647 1150 3233 529  Q 2819 -91 2034 -91  Q 1250 -91 836 529  Q 422 1150 422 2328  Q 422 3509 836 4129  Q 1250 4750 2034 4750  z "
       id="DejaVuSans-30-0"
       transform="scale(0.015625)" />
    <path
       d="M 684 794  L 1344 794  L 1344 0  L 684 0  L 684 794  z "
       id="DejaVuSans-2e-8"
       transform="scale(0.015625)" />
    <path
       d="M 2419 4116  L 825 1625  L 2419 1625  L 2419 4116  z M 2253 4666  L 3047 4666  L 3047 1625  L 3713 1625  L 3713 1100  L 3047 1100  L 3047 0  L 2419 0  L 2419 1100  L 313 1100  L 313 1709  L 2253 4666  z "
       id="DejaVuSans-34-8"
       transform="scale(0.015625)" />
    <path
       d="M 2113 2584  Q 1688 2584 1439 2293  Q 1191 2003 1191 1497  Q 1191 994 1439 701  Q 1688 409 2113 409  Q 2538 409 2786 701  Q 3034 994 3034 1497  Q 3034 2003 2786 2293  Q 2538 2584 2113 2584  z M 3366 4563  L 3366 3988  Q 3128 4100 2886 4159  Q 2644 4219 2406 4219  Q 1781 4219 1451 3797  Q 1122 3375 1075 2522  Q 1259 2794 1537 2939  Q 1816 3084 2150 3084  Q 2853 3084 3261 2657  Q 3669 2231 3669 1497  Q 3669 778 3244 343  Q 2819 -91 2113 -91  Q 1303 -91 875 529  Q 447 1150 447 2328  Q 447 3434 972 4092  Q 1497 4750 2381 4750  Q 2619 4750 2861 4703  Q 3103 4656 3366 4563  z "
       id="DejaVuSans-36-4"
       transform="scale(0.015625)" />
    <path
       d="M 2034 2216  Q 1584 2216 1326 1975  Q 1069 1734 1069 1313  Q 1069 891 1326 650  Q 1584 409 2034 409  Q 2484 409 2743 651  Q 3003 894 3003 1313  Q 3003 1734 2745 1975  Q 2488 2216 2034 2216  z M 1403 2484  Q 997 2584 770 2862  Q 544 3141 544 3541  Q 544 4100 942 4425  Q 1341 4750 2034 4750  Q 2731 4750 3128 4425  Q 3525 4100 3525 3541  Q 3525 3141 3298 2862  Q 3072 2584 2669 2484  Q 3125 2378 3379 2068  Q 3634 1759 3634 1313  Q 3634 634 3220 271  Q 2806 -91 2034 -91  Q 1263 -91 848 271  Q 434 634 434 1313  Q 434 1759 690 2068  Q 947 2378 1403 2484  z M 1172 3481  Q 1172 3119 1398 2916  Q 1625 2713 2034 2713  Q 2441 2713 2670 2916  Q 2900 3119 2900 3481  Q 2900 3844 2670 4047  Q 2441 4250 2034 4250  Q 1625 4250 1398 4047  Q 1172 3844 1172 3481  z "
       id="DejaVuSans-38-7"
       transform="scale(0.015625)" />
    <path
       d="M 1259 2228  L 1259 519  L 2272 519  Q 2781 519 3026 730  Q 3272 941 3272 1375  Q 3272 1813 3026 2020  Q 2781 2228 2272 2228  L 1259 2228  z M 1259 4147  L 1259 2741  L 2194 2741  Q 2656 2741 2882 2914  Q 3109 3088 3109 3444  Q 3109 3797 2882 3972  Q 2656 4147 2194 4147  L 1259 4147  z M 628 4666  L 2241 4666  Q 2963 4666 3353 4366  Q 3744 4066 3744 3513  Q 3744 3084 3544 2831  Q 3344 2578 2956 2516  Q 3422 2416 3680 2098  Q 3938 1781 3938 1306  Q 3938 681 3513 340  Q 3088 0 2303 0  L 628 0  L 628 4666  z "
       id="DejaVuSans-42-0"
       transform="scale(0.015625)" />
    <path
       d="M 2194 1759  Q 1497 1759 1228 1600  Q 959 1441 959 1056  Q 959 750 1161 570  Q 1363 391 1709 391  Q 2188 391 2477 730  Q 2766 1069 2766 1631  L 2766 1759  L 2194 1759  z M 3341 1997  L 3341 0  L 2766 0  L 2766 531  Q 2569 213 2275 61  Q 1981 -91 1556 -91  Q 1019 -91 701 211  Q 384 513 384 1019  Q 384 1609 779 1909  Q 1175 2209 1959 2209  L 2766 2209  L 2766 2266  Q 2766 2663 2505 2880  Q 2244 3097 1772 3097  Q 1472 3097 1187 3025  Q 903 2953 641 2809  L 641 3341  Q 956 3463 1253 3523  Q 1550 3584 1831 3584  Q 2591 3584 2966 3190  Q 3341 2797 3341 1997  z "
       id="DejaVuSans-61-3"
       transform="scale(0.015625)" />
    <path
       d="M 3513 2113  L 3513 0  L 2938 0  L 2938 2094  Q 2938 2591 2744 2837  Q 2550 3084 2163 3084  Q 1697 3084 1428 2787  Q 1159 2491 1159 1978  L 1159 0  L 581 0  L 581 3500  L 1159 3500  L 1159 2956  Q 1366 3272 1645 3428  Q 1925 3584 2291 3584  Q 2894 3584 3203 3211  Q 3513 2838 3513 2113  z "
       id="DejaVuSans-6e-75"
       transform="scale(0.015625)" />
    <path
       d="M 2906 2969  L 2906 4863  L 3481 4863  L 3481 0  L 2906 0  L 2906 525  Q 2725 213 2448 61  Q 2172 -91 1784 -91  Q 1150 -91 751 415  Q 353 922 353 1747  Q 353 2572 751 3078  Q 1150 3584 1784 3584  Q 2172 3584 2448 3432  Q 2725 3281 2906 2969  z M 947 1747  Q 947 1113 1208 752  Q 1469 391 1925 391  Q 2381 391 2643 752  Q 2906 1113 2906 1747  Q 2906 2381 2643 2742  Q 2381 3103 1925 3103  Q 1469 3103 1208 2742  Q 947 2381 947 1747  z "
       id="DejaVuSans-64-6"
       transform="scale(0.015625)" />
    <path
       d="M 269 3500  L 844 3500  L 1563 769  L 2278 3500  L 2956 3500  L 3675 769  L 4391 3500  L 4966 3500  L 4050 0  L 3372 0  L 2619 2869  L 1863 0  L 1184 0  L 269 3500  z "
       id="DejaVuSans-77-4"
       transform="scale(0.015625)" />
    <path
       d="M 603 3500  L 1178 3500  L 1178 0  L 603 0  L 603 3500  z M 603 4863  L 1178 4863  L 1178 4134  L 603 4134  L 603 4863  z "
       id="DejaVuSans-69-9"
       transform="scale(0.015625)" />
    <path
       d="M 1172 4494  L 1172 3500  L 2356 3500  L 2356 3053  L 1172 3053  L 1172 1153  Q 1172 725 1289 603  Q 1406 481 1766 481  L 2356 481  L 2356 0  L 1766 0  Q 1100 0 847 248  Q 594 497 594 1153  L 594 3053  L 172 3053  L 172 3500  L 594 3500  L 594 4494  L 1172 4494  z "
       id="DejaVuSans-74-5"
       transform="scale(0.015625)" />
    <path
       d="M 3513 2113  L 3513 0  L 2938 0  L 2938 2094  Q 2938 2591 2744 2837  Q 2550 3084 2163 3084  Q 1697 3084 1428 2787  Q 1159 2491 1159 1978  L 1159 0  L 581 0  L 581 4863  L 1159 4863  L 1159 2956  Q 1366 3272 1645 3428  Q 1925 3584 2291 3584  Q 2894 3584 3203 3211  Q 3513 2838 3513 2113  z "
       id="DejaVuSans-68-7"
       transform="scale(0.015625)" />
    <path
       id="DejaVuSans-20-6"
       transform="scale(0.015625)" />
    <path
       d="M 550 4863  L 1875 4863  L 1875 4416  L 1125 4416  L 1125 -397  L 1875 -397  L 1875 -844  L 550 -844  L 550 4863  z "
       id="DejaVuSans-5b-2"
       transform="scale(0.015625)" />
    <path
       d="M 628 4666  L 1569 4666  L 2759 1491  L 3956 4666  L 4897 4666  L 4897 0  L 4281 0  L 4281 4097  L 3078 897  L 2444 897  L 1241 4097  L 1241 0  L 628 0  L 628 4666  z "
       id="DejaVuSans-4d-5"
       transform="scale(0.015625)" />
    <path
       d="M 3116 1747  Q 3116 2381 2855 2742  Q 2594 3103 2138 3103  Q 1681 3103 1420 2742  Q 1159 2381 1159 1747  Q 1159 1113 1420 752  Q 1681 391 2138 391  Q 2594 391 2855 752  Q 3116 1113 3116 1747  z M 1159 2969  Q 1341 3281 1617 3432  Q 1894 3584 2278 3584  Q 2916 3584 3314 3078  Q 3713 2572 3713 1747  Q 3713 922 3314 415  Q 2916 -91 2278 -91  Q 1894 -91 1617 61  Q 1341 213 1159 525  L 1159 0  L 581 0  L 581 4863  L 1159 4863  L 1159 2969  z "
       id="DejaVuSans-62-0"
       transform="scale(0.015625)" />
    <path
       d="M 1625 4666  L 2156 4666  L 531 -594  L 0 -594  L 1625 4666  z "
       id="DejaVuSans-2f-7"
       transform="scale(0.015625)" />
    <path
       d="M 2834 3397  L 2834 2853  Q 2591 2978 2328 3040  Q 2066 3103 1784 3103  Q 1356 3103 1142 2972  Q 928 2841 928 2578  Q 928 2378 1081 2264  Q 1234 2150 1697 2047  L 1894 2003  Q 2506 1872 2764 1633  Q 3022 1394 3022 966  Q 3022 478 2636 193  Q 2250 -91 1575 -91  Q 1294 -91 989 -36  Q 684 19 347 128  L 347 722  Q 666 556 975 473  Q 1284 391 1588 391  Q 1994 391 2212 530  Q 2431 669 2431 922  Q 2431 1156 2273 1281  Q 2116 1406 1581 1522  L 1381 1569  Q 847 1681 609 1914  Q 372 2147 372 2553  Q 372 3047 722 3315  Q 1072 3584 1716 3584  Q 2034 3584 2315 3537  Q 2597 3491 2834 3397  z "
       id="DejaVuSans-73-4"
       transform="scale(0.015625)" />
    <path
       d="M 3597 1894  L 3597 1613  L 953 1613  Q 991 1019 1311 708  Q 1631 397 2203 397  Q 2534 397 2845 478  Q 3156 559 3463 722  L 3463 178  Q 3153 47 2828 -22  Q 2503 -91 2169 -91  Q 1331 -91 842 396  Q 353 884 353 1716  Q 353 2575 817 3079  Q 1281 3584 2069 3584  Q 2775 3584 3186 3129  Q 3597 2675 3597 1894  z M 3022 2063  Q 3016 2534 2758 2815  Q 2500 3097 2075 3097  Q 1594 3097 1305 2825  Q 1016 2553 972 2059  L 3022 2063  z "
       id="DejaVuSans-65-6"
       transform="scale(0.015625)" />
    <path
       d="M 3122 3366  L 3122 2828  Q 2878 2963 2633 3030  Q 2388 3097 2138 3097  Q 1578 3097 1268 2742  Q 959 2388 959 1747  Q 959 1106 1268 751  Q 1578 397 2138 397  Q 2388 397 2633 464  Q 2878 531 3122 666  L 3122 134  Q 2881 22 2623 -34  Q 2366 -91 2075 -91  Q 1284 -91 818 406  Q 353 903 353 1747  Q 353 2603 823 3093  Q 1294 3584 2113 3584  Q 2378 3584 2631 3529  Q 2884 3475 3122 3366  z "
       id="DejaVuSans-63-7"
       transform="scale(0.015625)" />
    <path
       d="M 1947 4863  L 1947 -844  L 622 -844  L 622 -397  L 1369 -397  L 1369 4416  L 622 4416  L 622 4863  L 1947 4863  z "
       id="DejaVuSans-5d-2"
       transform="scale(0.015625)" />
    <path
       d="M 0 -3  L -3 3  L 3 3  z "
       id="m875fff32fa-1"
       style="stroke:#2ca02c;stroke-linejoin:miter;" />
    <path
       d="M 544 1381  L 544 3500  L 1119 3500  L 1119 1403  Q 1119 906 1312 657  Q 1506 409 1894 409  Q 2359 409 2629 706  Q 2900 1003 2900 1516  L 2900 3500  L 3475 3500  L 3475 0  L 2900 0  L 2900 538  Q 2691 219 2414 64  Q 2138 -91 1772 -91  Q 1169 -91 856 284  Q 544 659 544 1381  z M 1991 3584  L 1991 3584  z "
       id="DejaVuSans-75-0"
       transform="scale(0.015625)" />
    <path
       d="M 2631 2963  Q 2534 3019 2420 3045  Q 2306 3072 2169 3072  Q 1681 3072 1420 2755  Q 1159 2438 1159 1844  L 1159 0  L 581 0  L 581 3500  L 1159 3500  L 1159 2956  Q 1341 3275 1631 3429  Q 1922 3584 2338 3584  Q 2397 3584 2469 3576  Q 2541 3569 2628 3553  L 2631 2963  z "
       id="DejaVuSans-72-6"
       transform="scale(0.015625)" />
    <path
       d="M 3328 2828  Q 3544 3216 3844 3400  Q 4144 3584 4550 3584  Q 5097 3584 5394 3201  Q 5691 2819 5691 2113  L 5691 0  L 5113 0  L 5113 2094  Q 5113 2597 4934 2840  Q 4756 3084 4391 3084  Q 3944 3084 3684 2787  Q 3425 2491 3425 1978  L 3425 0  L 2847 0  L 2847 2094  Q 2847 2600 2669 2842  Q 2491 3084 2119 3084  Q 1678 3084 1418 2786  Q 1159 2488 1159 1978  L 1159 0  L 581 0  L 581 3500  L 1159 3500  L 1159 2956  Q 1356 3278 1631 3431  Q 1906 3584 2284 3584  Q 2666 3584 2933 3390  Q 3200 3197 3328 2828  z "
       id="DejaVuSans-6d-4"
       transform="scale(0.015625)" />
    <clipPath
       id="p0430f681f6-4">
      <rect
         height="217.44"
         width="334.8"
         x="54"
         y="34.56"
         id="rect11640" />
    </clipPath>
  </defs>
  <g
     inkscape:label="Layer 1"
     inkscape:groupmode="layer"
     id="layer1">
    <path
       d="M 44.211381,104.01891 H 162.32138 V 27.310913 H 44.211381 Z"
       style="fill:#ffffff;stroke-width:0.352778"
       id="path671" />
    <g
       id="matplotlib.axis_1-9"
       transform="matrix(0.35277778,0,0,0.35277778,25.161381,15.118913)">
      <g
         id="xtick_1-1">
        <g
           id="line2d_1-0">
          <defs
             id="defs675">
            <path
               d="M 0,0 V 3.5"
               id="path1068"
               style="stroke:#000000;stroke-width:0.8" />
          </defs>
          <g
             id="g679">
            <use
               style="stroke:#000000;stroke-width:0.8"
               x="137.7"
               xlink:href="#m4db5f5d99a"
               y="252"
               id="use677"
               width="100%"
               height="100%" />
          </g>
        </g>
        <g
           id="text_1-0">
          <!-- 1 -->
          <g
             transform="matrix(0.1,0,0,-0.1,134.51875,266.59844)"
             id="g687">
            <defs
               id="defs683">
              <path
                 d="M 794,531 H 1825 V 4091 L 703,3866 v 575 l 1116,225 h 631 V 531 H 3481 V 0 H 794 Z"
                 id="path1074"
                 transform="scale(0.015625)" />
            </defs>
            <use
               xlink:href="#DejaVuSans-31-5"
               id="use685"
               x="0"
               y="0"
               width="100%"
               height="100%" />
          </g>
        </g>
      </g>
      <g
         id="xtick_2-7">
        <g
           id="line2d_2-5">
          <g
             id="g693">
            <use
               style="stroke:#000000;stroke-width:0.8"
               x="305.10001"
               xlink:href="#m4db5f5d99a"
               y="252"
               id="use691"
               width="100%"
               height="100%" />
          </g>
        </g>
        <g
           id="text_2-5">
          <!-- 2 -->
          <g
             transform="matrix(0.1,0,0,-0.1,301.91875,266.59844)"
             id="g701">
            <defs
               id="defs697">
              <path
                 d="M 1228,531 H 3431 V 0 H 469 v 531 q 359,372 979,998 621,627 780,809 303,340 423,576 121,236 121,464 0,372 -261,606 -261,235 -680,235 -297,0 -627,-103 -329,-103 -704,-313 v 638 q 381,153 712,231 332,78 607,78 725,0 1156,-363 431,-362 431,-968 0,-288 -108,-546 -107,-257 -392,-607 -78,-91 -497,-524 Q 1991,1309 1228,531 Z"
                 id="path1084"
                 transform="scale(0.015625)" />
            </defs>
            <use
               xlink:href="#DejaVuSans-32-1"
               id="use699"
               x="0"
               y="0"
               width="100%"
               height="100%" />
          </g>
        </g>
      </g>
    </g>
    <g
       id="g9520"
       transform="translate(-21.695841)">
      <g
         id="text_3-7"
         transform="matrix(0.35277778,0,0,0.35277778,25.161381,15.118913)">
        <!-- 0.0 -->
        <g
           transform="matrix(0.1,0,0,-0.1,31.096875,255.26156)"
           id="g724">
          <defs
             id="defs716">
            <path
               d="m 2034,4250 q -487,0 -733,-480 -245,-479 -245,-1442 0,-959 245,-1439 246,-480 733,-480 491,0 736,480 246,480 246,1439 0,963 -246,1442 -245,480 -736,480 z m 0,500 q 785,0 1199,-621 414,-620 414,-1801 0,-1178 -414,-1799 -414,-620 -1199,-620 -784,0 -1198,620 -414,621 -414,1799 0,1181 414,1801 414,621 1198,621 z"
               id="path1098"
               transform="scale(0.015625)" />
            <path
               d="m 684,794 h 660 V 0 H 684 Z"
               id="path1100"
               transform="scale(0.015625)" />
          </defs>
          <use
             xlink:href="#DejaVuSans-30-4"
             id="use718"
             x="0"
             y="0"
             width="100%"
             height="100%" />
          <use
             x="63.623047"
             xlink:href="#DejaVuSans-2e-3"
             id="use720"
             y="0"
             width="100%"
             height="100%" />
          <use
             x="95.410156"
             xlink:href="#DejaVuSans-30-4"
             id="use722"
             y="0"
             width="100%"
             height="100%" />
        </g>
      </g>
      <g
         id="text_4-3"
         transform="matrix(0.35277778,0,0,0.35277778,25.161381,15.118913)">
        <!-- 0.2 -->
        <g
           transform="matrix(0.1,0,0,-0.1,31.096875,225.28451)"
           id="g739">
          <use
             xlink:href="#DejaVuSans-30-4"
             id="use733"
             x="0"
             y="0"
             width="100%"
             height="100%" />
          <use
             x="63.623047"
             xlink:href="#DejaVuSans-2e-3"
             id="use735"
             y="0"
             width="100%"
             height="100%" />
          <use
             x="95.410156"
             xlink:href="#DejaVuSans-32-1"
             id="use737"
             y="0"
             width="100%"
             height="100%" />
        </g>
      </g>
      <g
         id="text_5-6"
         transform="matrix(0.35277778,0,0,0.35277778,25.161381,15.118913)">
        <!-- 0.4 -->
        <g
           transform="matrix(0.1,0,0,-0.1,31.096875,195.30746)"
           id="g757">
          <defs
             id="defs749">
            <path
               d="M 2419,4116 825,1625 h 1594 z m -166,550 h 794 V 1625 h 666 V 1100 H 3047 V 0 H 2419 V 1100 H 313 v 609 z"
               id="path1121"
               transform="scale(0.015625)" />
          </defs>
          <use
             xlink:href="#DejaVuSans-30-4"
             id="use751"
             x="0"
             y="0"
             width="100%"
             height="100%" />
          <use
             x="63.623047"
             xlink:href="#DejaVuSans-2e-3"
             id="use753"
             y="0"
             width="100%"
             height="100%" />
          <use
             x="95.410156"
             xlink:href="#DejaVuSans-34-2"
             id="use755"
             y="0"
             width="100%"
             height="100%" />
        </g>
      </g>
      <g
         id="text_6-7"
         transform="matrix(0.35277778,0,0,0.35277778,25.161381,15.118913)">
        <!-- 0.6 -->
        <g
           transform="matrix(0.1,0,0,-0.1,31.096875,165.33041)"
           id="g775">
          <defs
             id="defs767">
            <path
               d="m 2113,2584 q -425,0 -674,-291 -248,-290 -248,-796 0,-503 248,-796 249,-292 674,-292 425,0 673,292 248,293 248,796 0,506 -248,796 -248,291 -673,291 z m 1253,1979 v -575 q -238,112 -480,171 -242,60 -480,60 -625,0 -955,-422 -329,-422 -376,-1275 184,272 462,417 279,145 613,145 703,0 1111,-427 408,-426 408,-1160 0,-719 -425,-1154 -425,-434 -1131,-434 -810,0 -1238,620 -428,621 -428,1799 0,1106 525,1764 525,658 1409,658 238,0 480,-47 242,-47 505,-140 z"
               id="path1133"
               transform="scale(0.015625)" />
          </defs>
          <use
             xlink:href="#DejaVuSans-30-4"
             id="use769"
             x="0"
             y="0"
             width="100%"
             height="100%" />
          <use
             x="63.623047"
             xlink:href="#DejaVuSans-2e-3"
             id="use771"
             y="0"
             width="100%"
             height="100%" />
          <use
             x="95.410156"
             xlink:href="#DejaVuSans-36-9"
             id="use773"
             y="0"
             width="100%"
             height="100%" />
        </g>
      </g>
      <g
         id="text_7-7"
         transform="matrix(0.35277778,0,0,0.35277778,25.161381,15.118913)">
        <!-- 0.8 -->
        <g
           transform="matrix(0.1,0,0,-0.1,31.096875,135.35337)"
           id="g793">
          <defs
             id="defs785">
            <path
               d="m 2034,2216 q -450,0 -708,-241 -257,-241 -257,-662 0,-422 257,-663 258,-241 708,-241 450,0 709,242 260,243 260,662 0,421 -258,662 -257,241 -711,241 z m -631,268 q -406,100 -633,378 -226,279 -226,679 0,559 398,884 399,325 1092,325 697,0 1094,-325 397,-325 397,-884 0,-400 -227,-679 -226,-278 -629,-378 456,-106 710,-416 255,-309 255,-755 Q 3634,634 3220,271 2806,-91 2034,-91 1263,-91 848,271 434,634 434,1313 q 0,446 256,755 257,310 713,416 z m -231,997 q 0,-362 226,-565 227,-203 636,-203 407,0 636,203 230,203 230,565 0,363 -230,566 -229,203 -636,203 -409,0 -636,-203 -226,-203 -226,-566 z"
               id="path1145"
               transform="scale(0.015625)" />
          </defs>
          <use
             xlink:href="#DejaVuSans-30-4"
             id="use787"
             x="0"
             y="0"
             width="100%"
             height="100%" />
          <use
             x="63.623047"
             xlink:href="#DejaVuSans-2e-3"
             id="use789"
             y="0"
             width="100%"
             height="100%" />
          <use
             x="95.410156"
             xlink:href="#DejaVuSans-38-1"
             id="use791"
             y="0"
             width="100%"
             height="100%" />
        </g>
      </g>
      <g
         id="text_8-6"
         transform="matrix(0.35277778,0,0,0.35277778,25.161381,15.118913)">
        <!-- 1.0 -->
        <g
           transform="matrix(0.1,0,0,-0.1,31.096875,105.37632)"
           id="g808">
          <use
             xlink:href="#DejaVuSans-31-5"
             id="use802"
             x="0"
             y="0"
             width="100%"
             height="100%" />
          <use
             x="63.623047"
             xlink:href="#DejaVuSans-2e-3"
             id="use804"
             y="0"
             width="100%"
             height="100%" />
          <use
             x="95.410156"
             xlink:href="#DejaVuSans-30-4"
             id="use806"
             y="0"
             width="100%"
             height="100%" />
        </g>
      </g>
      <g
         id="text_9-4"
         transform="matrix(0.35277778,0,0,0.35277778,25.161381,15.118913)">
        <!-- 1.2 -->
        <g
           transform="matrix(0.1,0,0,-0.1,31.096875,75.399273)"
           id="g823">
          <use
             xlink:href="#DejaVuSans-31-5"
             id="use817"
             x="0"
             y="0"
             width="100%"
             height="100%" />
          <use
             x="63.623047"
             xlink:href="#DejaVuSans-2e-3"
             id="use819"
             y="0"
             width="100%"
             height="100%" />
          <use
             x="95.410156"
             xlink:href="#DejaVuSans-32-1"
             id="use821"
             y="0"
             width="100%"
             height="100%" />
        </g>
      </g>
      <g
         id="text_10-0"
         transform="matrix(0.35277778,0,0,0.35277778,25.161381,15.118913)">
        <!-- 1.4 -->
        <g
           transform="matrix(0.1,0,0,-0.1,31.096875,45.422225)"
           id="g838">
          <use
             xlink:href="#DejaVuSans-31-5"
             id="use832"
             x="0"
             y="0"
             width="100%"
             height="100%" />
          <use
             x="63.623047"
             xlink:href="#DejaVuSans-2e-3"
             id="use834"
             y="0"
             width="100%"
             height="100%" />
          <use
             x="95.410156"
             xlink:href="#DejaVuSans-34-2"
             id="use836"
             y="0"
             width="100%"
             height="100%" />
        </g>
      </g>
      <g
         transform="matrix(0,-0.03527778,-0.03527778,0,33.986889,84.944494)"
         id="g903">
        <defs
           id="defs859">
          <path
             d="M 1259,2228 V 519 h 1013 q 509,0 754,211 246,211 246,645 0,438 -246,645 -245,208 -754,208 z m 0,1919 V 2741 h 935 q 462,0 688,173 227,174 227,530 0,353 -227,528 -226,175 -688,175 z m -631,519 h 1613 q 722,0 1112,-300 391,-300 391,-853 0,-429 -200,-682 -200,-253 -588,-315 466,-100 724,-418 258,-317 258,-792 0,-625 -425,-966 Q 3088,0 2303,0 H 628 Z"
             id="path1181"
             transform="scale(0.015625)" />
          <path
             d="m 2194,1759 q -697,0 -966,-159 -269,-159 -269,-544 0,-306 202,-486 202,-179 548,-179 479,0 768,339 289,339 289,901 v 128 z m 1147,238 V 0 H 2766 V 531 Q 2569,213 2275,61 1981,-91 1556,-91 q -537,0 -855,302 -317,302 -317,808 0,590 395,890 396,300 1180,300 h 807 v 57 q 0,397 -261,614 -261,217 -733,217 -300,0 -585,-72 -284,-72 -546,-216 v 532 q 315,122 612,182 297,61 578,61 760,0 1135,-394 375,-393 375,-1193 z"
             id="path1183"
             transform="scale(0.015625)" />
          <path
             d="M 3513,2113 V 0 h -575 v 2094 q 0,497 -194,743 -194,247 -581,247 -466,0 -735,-297 -269,-296 -269,-809 V 0 H 581 v 3500 h 578 v -544 q 207,316 486,472 280,156 646,156 603,0 912,-373 310,-373 310,-1098 z"
             id="path1185"
             transform="scale(0.015625)" />
          <path
             d="m 2906,2969 v 1894 h 575 V 0 H 2906 V 525 Q 2725,213 2448,61 2172,-91 1784,-91 1150,-91 751,415 353,922 353,1747 q 0,825 398,1331 399,506 1033,506 388,0 664,-152 277,-151 458,-463 z M 947,1747 q 0,-634 261,-995 261,-361 717,-361 456,0 718,361 263,361 263,995 0,634 -263,995 -262,361 -718,361 -456,0 -717,-361 -261,-361 -261,-995 z"
             id="path1187"
             transform="scale(0.015625)" />
          <path
             d="m 269,3500 h 575 l 719,-2731 715,2731 h 678 l 719,-2731 716,2731 h 575 L 4050,0 H 3372 L 2619,2869 1863,0 h -679 z"
             id="path1189"
             transform="scale(0.015625)" />
          <path
             d="m 603,3500 h 575 V 0 H 603 Z m 0,1363 h 575 V 4134 H 603 Z"
             id="path1191"
             transform="scale(0.015625)" />
          <path
             d="M 1172,4494 V 3500 H 2356 V 3053 H 1172 V 1153 q 0,-428 117,-550 117,-122 477,-122 h 590 V 0 H 1766 Q 1100,0 847,248 594,497 594,1153 V 3053 H 172 v 447 h 422 v 994 z"
             id="path1193"
             transform="scale(0.015625)" />
          <path
             d="M 3513,2113 V 0 h -575 v 2094 q 0,497 -194,743 -194,247 -581,247 -466,0 -735,-297 -269,-296 -269,-809 V 0 H 581 v 4863 h 578 V 2956 q 207,316 486,472 280,156 646,156 603,0 912,-373 310,-373 310,-1098 z"
             id="path1195"
             transform="scale(0.015625)" />
          <path
             id="path1197"
             transform="scale(0.015625)"
             d="" />
          <path
             d="M 550,4863 H 1875 V 4416 H 1125 V -397 h 750 V -844 H 550 Z"
             id="path1199"
             transform="scale(0.015625)" />
          <path
             d="m 628,4666 h 941 L 2759,1491 3956,4666 h 941 V 0 H 4281 V 4097 L 3078,897 H 2444 L 1241,4097 V 0 H 628 Z"
             id="path1201"
             transform="scale(0.015625)" />
          <path
             d="m 3116,1747 q 0,634 -261,995 -261,361 -717,361 -457,0 -718,-361 -261,-361 -261,-995 0,-634 261,-995 261,-361 718,-361 456,0 717,361 261,361 261,995 z M 1159,2969 q 182,312 458,463 277,152 661,152 638,0 1036,-506 399,-506 399,-1331 Q 3713,922 3314,415 2916,-91 2278,-91 1894,-91 1617,61 1341,213 1159,525 V 0 H 581 v 4863 h 578 z"
             id="path1203"
             transform="scale(0.015625)" />
          <path
             d="m 1625,4666 h 531 L 531,-594 H 0 Z"
             id="path1205"
             transform="scale(0.015625)" />
          <path
             d="m 2834,3397 v -544 q -243,125 -506,187 -262,63 -544,63 -428,0 -642,-131 -214,-131 -214,-394 0,-200 153,-314 153,-114 616,-217 l 197,-44 q 612,-131 870,-370 258,-239 258,-667 0,-488 -386,-773 Q 2250,-91 1575,-91 1294,-91 989,-36 684,19 347,128 v 594 q 319,-166 628,-249 309,-82 613,-82 406,0 624,139 219,139 219,392 0,234 -158,359 -157,125 -692,241 l -200,47 q -534,112 -772,345 -237,233 -237,639 0,494 350,762 350,269 994,269 318,0 599,-47 282,-46 519,-140 z"
             id="path1207"
             transform="scale(0.015625)" />
          <path
             d="M 3597,1894 V 1613 H 953 q 38,-594 358,-905 320,-311 892,-311 331,0 642,81 311,81 618,244 V 178 Q 3153,47 2828,-22 2503,-91 2169,-91 1331,-91 842,396 353,884 353,1716 q 0,859 464,1363 464,505 1252,505 706,0 1117,-455 411,-454 411,-1235 z m -575,169 q -6,471 -264,752 -258,282 -683,282 -481,0 -770,-272 -289,-272 -333,-766 z"
             id="path1209"
             transform="scale(0.015625)" />
          <path
             d="m 3122,3366 v -538 q -244,135 -489,202 -245,67 -495,67 -560,0 -870,-355 -309,-354 -309,-995 0,-641 309,-996 310,-354 870,-354 250,0 495,67 245,67 489,202 V 134 Q 2881,22 2623,-34 2366,-91 2075,-91 1284,-91 818,406 353,903 353,1747 q 0,856 470,1346 471,491 1290,491 265,0 518,-55 253,-54 491,-163 z"
             id="path1211"
             transform="scale(0.015625)" />
          <path
             d="M 1947,4863 V -844 H 622 v 447 h 747 V 4416 H 622 v 447 z"
             id="path1213"
             transform="scale(0.015625)" />
        </defs>
        <use
           xlink:href="#DejaVuSans-42-9"
           id="use861"
           x="0"
           y="0"
           width="100%"
           height="100%" />
        <use
           x="68.603516"
           xlink:href="#DejaVuSans-61-1"
           id="use863"
           y="0"
           width="100%"
           height="100%" />
        <use
           x="129.88281"
           xlink:href="#DejaVuSans-6e-7"
           id="use865"
           y="0"
           width="100%"
           height="100%" />
        <use
           x="193.26172"
           xlink:href="#DejaVuSans-64-7"
           id="use867"
           y="0"
           width="100%"
           height="100%" />
        <use
           x="256.73828"
           xlink:href="#DejaVuSans-77-2"
           id="use869"
           y="0"
           width="100%"
           height="100%" />
        <use
           x="338.52539"
           xlink:href="#DejaVuSans-69-5"
           id="use871"
           y="0"
           width="100%"
           height="100%" />
        <use
           x="366.30859"
           xlink:href="#DejaVuSans-64-7"
           id="use873"
           y="0"
           width="100%"
           height="100%" />
        <use
           x="429.78516"
           xlink:href="#DejaVuSans-74-9"
           id="use875"
           y="0"
           width="100%"
           height="100%" />
        <use
           x="468.99414"
           xlink:href="#DejaVuSans-68-5"
           id="use877"
           y="0"
           width="100%"
           height="100%" />
        <use
           x="532.37305"
           xlink:href="#DejaVuSans-20-4"
           id="use879"
           y="0"
           width="100%"
           height="100%" />
        <use
           x="564.16016"
           xlink:href="#DejaVuSans-5b-4"
           id="use881"
           y="0"
           width="100%"
           height="100%" />
        <use
           x="603.17383"
           xlink:href="#DejaVuSans-4d-7"
           id="use883"
           y="0"
           width="100%"
           height="100%" />
        <use
           x="689.45312"
           xlink:href="#DejaVuSans-20-4"
           id="use885"
           y="0"
           width="100%"
           height="100%" />
        <use
           x="721.24023"
           xlink:href="#DejaVuSans-62-6"
           id="use887"
           y="0"
           width="100%"
           height="100%" />
        <use
           x="784.7168"
           xlink:href="#DejaVuSans-69-5"
           id="use889"
           y="0"
           width="100%"
           height="100%" />
        <use
           x="812.5"
           xlink:href="#DejaVuSans-74-9"
           id="use891"
           y="0"
           width="100%"
           height="100%" />
        <use
           x="851.70898"
           xlink:href="#DejaVuSans-2f-9"
           id="use893"
           y="0"
           width="100%"
           height="100%" />
        <use
           x="885.40039"
           xlink:href="#DejaVuSans-73-8"
           id="use895"
           y="0"
           width="100%"
           height="100%" />
        <use
           x="937.5"
           xlink:href="#DejaVuSans-65-5"
           id="use897"
           y="0"
           width="100%"
           height="100%" />
        <use
           x="999.02344"
           xlink:href="#DejaVuSans-63-9"
           id="use899"
           y="0"
           width="100%"
           height="100%" />
        <use
           x="1054.0039"
           xlink:href="#DejaVuSans-5d-9"
           id="use901"
           y="0"
           width="100%"
           height="100%" />
      </g>
    </g>
    <path
       clip-path="url(#p09c64ef3d2)"
       d="m 125.145,164.34857 h 25.11 v -40.80658 h -25.11 v 40.80658"
       style="fill:none;stroke:#000000;stroke-linecap:square"
       id="path907"
       transform="matrix(0.35277778,0,0,0.35277778,25.161381,15.118913)" />
    <path
       clip-path="url(#p09c64ef3d2)"
       d="m 137.7,164.34857 v 61.19868"
       style="fill:none;stroke:#000000;stroke-linecap:square"
       id="path910"
       transform="matrix(0.35277778,0,0,0.35277778,25.161381,15.118913)" />
    <path
       clip-path="url(#p09c64ef3d2)"
       d="M 137.7,123.54199 V 44.443636"
       style="fill:none;stroke:#000000;stroke-linecap:square"
       id="path913"
       transform="matrix(0.35277778,0,0,0.35277778,25.161381,15.118913)" />
    <path
       clip-path="url(#p09c64ef3d2)"
       d="m 131.4225,225.54725 h 12.555"
       style="fill:none;stroke:#000000;stroke-linecap:square"
       id="path916"
       transform="matrix(0.35277778,0,0,0.35277778,25.161381,15.118913)" />
    <path
       clip-path="url(#p09c64ef3d2)"
       d="m 131.4225,44.443636 h 12.555"
       style="fill:none;stroke:#000000;stroke-linecap:square"
       id="path919"
       transform="matrix(0.35277778,0,0,0.35277778,25.161381,15.118913)" />
    <g
       id="line2d_16-4"
       transform="matrix(0.35277778,0,0,0.35277778,25.161381,15.118913)" />
    <path
       clip-path="url(#p09c64ef3d2)"
       d="m 292.545,199.27242 h 25.11 v -16.25817 h -25.11 v 16.25817"
       style="fill:none;stroke:#000000;stroke-linecap:square"
       id="path923"
       transform="matrix(0.35277778,0,0,0.35277778,25.161381,15.118913)" />
    <path
       clip-path="url(#p09c64ef3d2)"
       d="m 305.1,199.27242 v 42.84394"
       style="fill:none;stroke:#000000;stroke-linecap:square"
       id="path926"
       transform="matrix(0.35277778,0,0,0.35277778,25.161381,15.118913)" />
    <path
       clip-path="url(#p09c64ef3d2)"
       d="M 305.1,183.01425 V 145.92926"
       style="fill:none;stroke:#000000;stroke-linecap:square"
       id="path929"
       transform="matrix(0.35277778,0,0,0.35277778,25.161381,15.118913)" />
    <path
       clip-path="url(#p09c64ef3d2)"
       d="m 298.8225,242.11636 h 12.555"
       style="fill:none;stroke:#000000;stroke-linecap:square"
       id="path932"
       transform="matrix(0.35277778,0,0,0.35277778,25.161381,15.118913)" />
    <path
       clip-path="url(#p09c64ef3d2)"
       d="m 298.8225,145.92926 h 12.555"
       style="fill:none;stroke:#000000;stroke-linecap:square"
       id="path935"
       transform="matrix(0.35277778,0,0,0.35277778,25.161381,15.118913)" />
    <g
       id="line2d_22-0"
       transform="matrix(0.35277778,0,0,0.35277778,25.161381,15.118913)" />
    <path
       clip-path="url(#p09c64ef3d2)"
       d="m 125.145,149.37091 h 25.11"
       style="fill:none;stroke:#ff0000;stroke-width:3;stroke-linecap:square"
       id="path939"
       transform="matrix(0.35277778,0,0,0.35277778,25.161381,15.118913)" />
    <g
       clip-path="url(#p09c64ef3d2)"
       id="g947"
       transform="matrix(0.35277778,0,0,0.35277778,25.161381,15.118913)">
      <use
         style="fill:#2ca02c;stroke:#2ca02c;stroke-linejoin:miter"
         x="137.7"
         xlink:href="#m1a950c8dc9"
         y="140.16447"
         id="use945"
         width="100%"
         height="100%" />
    </g>
    <path
       clip-path="url(#p09c64ef3d2)"
       d="m 292.545,192.25729 h 25.11"
       style="fill:none;stroke:#ff0000;stroke-width:3;stroke-linecap:square"
       id="path950"
       transform="matrix(0.35277778,0,0,0.35277778,25.161381,15.118913)" />
    <g
       clip-path="url(#p09c64ef3d2)"
       id="g955"
       transform="matrix(0.35277778,0,0,0.35277778,25.161381,15.118913)">
      <use
         style="fill:#2ca02c;stroke:#2ca02c;stroke-linejoin:miter"
         x="305.10001"
         xlink:href="#m1a950c8dc9"
         y="191.26834"
         id="use953"
         width="100%"
         height="100%" />
    </g>
    <path
       d="M 44.211381,104.01891 V 27.310913"
       style="fill:none;stroke:#000000;stroke-width:0.282222;stroke-linecap:square;stroke-linejoin:miter"
       id="path958" />
    <g
       id="text_12-9"
       transform="matrix(0.35277778,0,0,0.35277778,25.161381,15.118913)">
      <!-- Bandwidth Measurement -->
      <g
         transform="matrix(0.12,0,0,-0.12,146.3625,28.56)"
         id="g1017">
        <defs
           id="defs973">
          <path
             d="m 544,1381 v 2119 h 575 V 1403 q 0,-497 193,-746 194,-248 582,-248 465,0 735,297 271,297 271,810 v 1984 h 575 V 0 H 2900 V 538 Q 2691,219 2414,64 2138,-91 1772,-91 1169,-91 856,284 544,659 544,1381 Z m 1447,2203 z"
             id="path1283"
             transform="scale(0.015625)" />
          <path
             d="m 2631,2963 q -97,56 -211,82 -114,27 -251,27 -488,0 -749,-317 -261,-317 -261,-911 V 0 H 581 v 3500 h 578 v -544 q 182,319 472,473 291,155 707,155 59,0 131,-8 72,-7 159,-23 z"
             id="path1285"
             transform="scale(0.015625)" />
          <path
             d="m 3328,2828 q 216,388 516,572 300,184 706,184 547,0 844,-383 297,-382 297,-1088 V 0 h -578 v 2094 q 0,503 -179,746 -178,244 -543,244 -447,0 -707,-297 -259,-296 -259,-809 V 0 h -578 v 2094 q 0,506 -178,748 -178,242 -550,242 -441,0 -701,-298 -259,-298 -259,-808 V 0 H 581 v 3500 h 578 v -544 q 197,322 472,475 275,153 653,153 382,0 649,-194 267,-193 395,-562 z"
             id="path1287"
             transform="scale(0.015625)" />
        </defs>
        <use
           xlink:href="#DejaVuSans-42-9"
           id="use975"
           x="0"
           y="0"
           width="100%"
           height="100%" />
        <use
           x="68.603516"
           xlink:href="#DejaVuSans-61-1"
           id="use977"
           y="0"
           width="100%"
           height="100%" />
        <use
           x="129.88281"
           xlink:href="#DejaVuSans-6e-7"
           id="use979"
           y="0"
           width="100%"
           height="100%" />
        <use
           x="193.26172"
           xlink:href="#DejaVuSans-64-7"
           id="use981"
           y="0"
           width="100%"
           height="100%" />
        <use
           x="256.73828"
           xlink:href="#DejaVuSans-77-2"
           id="use983"
           y="0"
           width="100%"
           height="100%" />
        <use
           x="338.52539"
           xlink:href="#DejaVuSans-69-5"
           id="use985"
           y="0"
           width="100%"
           height="100%" />
        <use
           x="366.30859"
           xlink:href="#DejaVuSans-64-7"
           id="use987"
           y="0"
           width="100%"
           height="100%" />
        <use
           x="429.78516"
           xlink:href="#DejaVuSans-74-9"
           id="use989"
           y="0"
           width="100%"
           height="100%" />
        <use
           x="468.99414"
           xlink:href="#DejaVuSans-68-5"
           id="use991"
           y="0"
           width="100%"
           height="100%" />
        <use
           x="532.37305"
           xlink:href="#DejaVuSans-20-4"
           id="use993"
           y="0"
           width="100%"
           height="100%" />
        <use
           x="564.16016"
           xlink:href="#DejaVuSans-4d-7"
           id="use995"
           y="0"
           width="100%"
           height="100%" />
        <use
           x="650.43945"
           xlink:href="#DejaVuSans-65-5"
           id="use997"
           y="0"
           width="100%"
           height="100%" />
        <use
           x="711.96289"
           xlink:href="#DejaVuSans-61-1"
           id="use999"
           y="0"
           width="100%"
           height="100%" />
        <use
           x="773.24219"
           xlink:href="#DejaVuSans-73-8"
           id="use1001"
           y="0"
           width="100%"
           height="100%" />
        <use
           x="825.3418"
           xlink:href="#DejaVuSans-75-3"
           id="use1003"
           y="0"
           width="100%"
           height="100%" />
        <use
           x="888.7207"
           xlink:href="#DejaVuSans-72-8"
           id="use1005"
           y="0"
           width="100%"
           height="100%" />
        <use
           x="927.58398"
           xlink:href="#DejaVuSans-65-5"
           id="use1007"
           y="0"
           width="100%"
           height="100%" />
        <use
           x="989.10742"
           xlink:href="#DejaVuSans-6d-2"
           id="use1009"
           y="0"
           width="100%"
           height="100%" />
        <use
           x="1086.5195"
           xlink:href="#DejaVuSans-65-5"
           id="use1011"
           y="0"
           width="100%"
           height="100%" />
        <use
           x="1148.043"
           xlink:href="#DejaVuSans-6e-7"
           id="use1013"
           y="0"
           width="100%"
           height="100%" />
        <use
           x="1211.4219"
           xlink:href="#DejaVuSans-74-9"
           id="use1015"
           y="0"
           width="100%"
           height="100%" />
      </g>
    </g>
    <path
       style="fill:#000000;stroke:#000000;stroke-width:0.1;stroke-linejoin:miter;stroke-miterlimit:4;stroke-dasharray:none;stroke-opacity:1"
       d="m 39.551883,82.567208 v -0.44173 h 1.388292 1.388293 v 0.44173 0.44173 h -1.388293 -1.388292 z"
       id="path9812" />
    <path
       style="fill:#000000;stroke:#000000;stroke-width:0.1;stroke-linejoin:miter;stroke-miterlimit:4;stroke-dasharray:none;stroke-opacity:1"
       d="m 39.551883,92.865259 v -0.441727 h 1.388292 1.388293 v 0.441727 0.44173 h -1.388293 -1.388292 z"
       id="path9962" />
    <path
       style="fill:#000000;stroke:#000000;stroke-width:0.1;stroke-linejoin:miter;stroke-miterlimit:4;stroke-dasharray:none;stroke-opacity:1"
       d="m 39.551883,103.16332 v -0.44173 h 1.388292 1.388293 v 0.44173 0.44173 h -1.388293 -1.388292 z"
       id="path10001" />
    <path
       style="fill:#000000;stroke:#000000;stroke-width:0.1;stroke-linejoin:miter;stroke-miterlimit:4;stroke-dasharray:none;stroke-opacity:1"
       d="m 39.551883,72.26915 v -0.44173 h 1.388292 1.388293 v 0.44173 0.44173 h -1.388293 -1.388292 z"
       id="path10040" />
    <path
       style="fill:#000000;stroke:#000000;stroke-width:0.1;stroke-linejoin:miter;stroke-miterlimit:4;stroke-dasharray:none;stroke-opacity:1"
       d="m 39.551883,61.971097 v -0.441729 h 1.514501 1.514502 v 0.441729 0.44173 h -1.514502 -1.514501 z"
       id="path10118" />
    <path
       style="fill:#000000;stroke:#000000;stroke-width:0.1;stroke-linejoin:miter;stroke-miterlimit:4;stroke-dasharray:none;stroke-opacity:1"
       d="M 39.551883,51.673039 V 51.23131 h 1.388292 1.388293 v 0.441729 0.44173 h -1.388293 -1.388292 z"
       id="path10157" />
    <path
       style="fill:#000000;stroke:#000000;stroke-width:0.1;stroke-linejoin:miter;stroke-miterlimit:4;stroke-dasharray:none;stroke-opacity:1"
       d="m 39.551883,41.374984 v -0.44173 h 1.388292 1.388293 v 0.44173 0.44173 h -1.388293 -1.388292 z"
       id="path10196" />
    <path
       style="fill:#000000;stroke:#000000;stroke-width:0.1;stroke-linejoin:miter;stroke-miterlimit:4;stroke-dasharray:none;stroke-opacity:1"
       d="m 39.551883,31.076928 v -0.44173 h 1.388292 1.388293 v 0.44173 0.441729 h -1.388293 -1.388292 z"
       id="path10235" />
    <g
       id="line2d_16"
       transform="matrix(0.35277778,0,0,0.35277778,-153.31195,14.013325)" />
    <g
       id="line2d_22"
       transform="matrix(0.35277778,0,0,0.35277778,-153.31195,14.013325)" />
    <g
       id="ytick_1"
       transform="matrix(0.35277778,0,0,0.35277778,-15.72823,14.725176)">
      <g
         id="line2d_3">
        <defs
           id="defs11325">
          <path
             d="M 0,0 H -3.5"
             id="path11710"
             style="stroke:#000000;stroke-width:0.8" />
        </defs>
        <g
           id="g11329">
          <use
             style="stroke:#000000;stroke-width:0.8"
             x="54"
             xlink:href="#m8bceb0e391-4"
             y="250.6908"
             id="use11327"
             width="100%"
             height="100%" />
        </g>
      </g>
      <g
         id="text_3">
        <!-- 0.0 -->
        <g
           transform="matrix(0.1,0,0,-0.1,31.096875,254.49001)"
           id="g11342">
          <defs
             id="defs11334">
            <path
               d="m 2034,4250 q -487,0 -733,-480 -245,-479 -245,-1442 0,-959 245,-1439 246,-480 733,-480 491,0 736,480 246,480 246,1439 0,963 -246,1442 -245,480 -736,480 z m 0,500 q 785,0 1199,-621 414,-620 414,-1801 0,-1178 -414,-1799 -414,-620 -1199,-620 -784,0 -1198,620 -414,621 -414,1799 0,1181 414,1801 414,621 1198,621 z"
               id="path11716"
               transform="scale(0.015625)" />
            <path
               d="m 684,794 h 660 V 0 H 684 Z"
               id="path11718"
               transform="scale(0.015625)" />
          </defs>
          <use
             xlink:href="#DejaVuSans-30-0"
             id="use11336"
             x="0"
             y="0"
             width="100%"
             height="100%" />
          <use
             x="63.623047"
             xlink:href="#DejaVuSans-2e-8"
             id="use11338"
             y="0"
             width="100%"
             height="100%" />
          <use
             x="95.410156"
             xlink:href="#DejaVuSans-30-0"
             id="use11340"
             y="0"
             width="100%"
             height="100%" />
        </g>
      </g>
    </g>
    <g
       id="ytick_2"
       transform="matrix(0.35277778,0,0,0.35277778,-15.72823,14.725176)">
      <g
         id="line2d_4">
        <g
           id="g11348">
          <use
             style="stroke:#000000;stroke-width:0.8"
             x="54"
             xlink:href="#m8bceb0e391-4"
             y="221.49945"
             id="use11346"
             width="100%"
             height="100%" />
        </g>
      </g>
      <g
         id="text_4">
        <!-- 0.2 -->
        <g
           transform="matrix(0.1,0,0,-0.1,31.096875,225.29867)"
           id="g11357">
          <use
             xlink:href="#DejaVuSans-30-0"
             id="use11351"
             x="0"
             y="0"
             width="100%"
             height="100%" />
          <use
             x="63.623047"
             xlink:href="#DejaVuSans-2e-8"
             id="use11353"
             y="0"
             width="100%"
             height="100%" />
          <use
             x="95.410156"
             xlink:href="#DejaVuSans-32-7"
             id="use11355"
             y="0"
             width="100%"
             height="100%" />
        </g>
      </g>
    </g>
    <g
       id="ytick_3"
       transform="matrix(0.35277778,0,0,0.35277778,-15.72823,14.725176)">
      <g
         id="line2d_5">
        <g
           id="g11363">
          <use
             style="stroke:#000000;stroke-width:0.8"
             x="54"
             xlink:href="#m8bceb0e391-4"
             y="192.30812"
             id="use11361"
             width="100%"
             height="100%" />
        </g>
      </g>
      <g
         id="text_5">
        <!-- 0.4 -->
        <g
           transform="matrix(0.1,0,0,-0.1,31.096875,196.10733)"
           id="g11375">
          <defs
             id="defs11367">
            <path
               d="M 2419,4116 825,1625 h 1594 z m -166,550 h 794 V 1625 h 666 V 1100 H 3047 V 0 H 2419 V 1100 H 313 v 609 z"
               id="path11739"
               transform="scale(0.015625)" />
          </defs>
          <use
             xlink:href="#DejaVuSans-30-0"
             id="use11369"
             x="0"
             y="0"
             width="100%"
             height="100%" />
          <use
             x="63.623047"
             xlink:href="#DejaVuSans-2e-8"
             id="use11371"
             y="0"
             width="100%"
             height="100%" />
          <use
             x="95.410156"
             xlink:href="#DejaVuSans-34-8"
             id="use11373"
             y="0"
             width="100%"
             height="100%" />
        </g>
      </g>
    </g>
    <g
       id="ytick_4"
       transform="matrix(0.35277778,0,0,0.35277778,-15.72823,14.725176)">
      <g
         id="line2d_6">
        <g
           id="g11381">
          <use
             style="stroke:#000000;stroke-width:0.8"
             x="54"
             xlink:href="#m8bceb0e391-4"
             y="163.11678"
             id="use11379"
             width="100%"
             height="100%" />
        </g>
      </g>
      <g
         id="text_6">
        <!-- 0.6 -->
        <g
           transform="matrix(0.1,0,0,-0.1,31.096875,166.916)"
           id="g11393">
          <defs
             id="defs11385">
            <path
               d="m 2113,2584 q -425,0 -674,-291 -248,-290 -248,-796 0,-503 248,-796 249,-292 674,-292 425,0 673,292 248,293 248,796 0,506 -248,796 -248,291 -673,291 z m 1253,1979 v -575 q -238,112 -480,171 -242,60 -480,60 -625,0 -955,-422 -329,-422 -376,-1275 184,272 462,417 279,145 613,145 703,0 1111,-427 408,-426 408,-1160 0,-719 -425,-1154 -425,-434 -1131,-434 -810,0 -1238,620 -428,621 -428,1799 0,1106 525,1764 525,658 1409,658 238,0 480,-47 242,-47 505,-140 z"
               id="path11751"
               transform="scale(0.015625)" />
          </defs>
          <use
             xlink:href="#DejaVuSans-30-0"
             id="use11387"
             x="0"
             y="0"
             width="100%"
             height="100%" />
          <use
             x="63.623047"
             xlink:href="#DejaVuSans-2e-8"
             id="use11389"
             y="0"
             width="100%"
             height="100%" />
          <use
             x="95.410156"
             xlink:href="#DejaVuSans-36-4"
             id="use11391"
             y="0"
             width="100%"
             height="100%" />
        </g>
      </g>
    </g>
    <g
       id="ytick_5"
       transform="matrix(0.35277778,0,0,0.35277778,-15.72823,14.725176)">
      <g
         id="line2d_7">
        <g
           id="g11399">
          <use
             style="stroke:#000000;stroke-width:0.8"
             x="54"
             xlink:href="#m8bceb0e391-4"
             y="133.92545"
             id="use11397"
             width="100%"
             height="100%" />
        </g>
      </g>
      <g
         id="text_7">
        <!-- 0.8 -->
        <g
           transform="matrix(0.1,0,0,-0.1,31.096875,137.72466)"
           id="g11411">
          <defs
             id="defs11403">
            <path
               d="m 2034,2216 q -450,0 -708,-241 -257,-241 -257,-662 0,-422 257,-663 258,-241 708,-241 450,0 709,242 260,243 260,662 0,421 -258,662 -257,241 -711,241 z m -631,268 q -406,100 -633,378 -226,279 -226,679 0,559 398,884 399,325 1092,325 697,0 1094,-325 397,-325 397,-884 0,-400 -227,-679 -226,-278 -629,-378 456,-106 710,-416 255,-309 255,-755 Q 3634,634 3220,271 2806,-91 2034,-91 1263,-91 848,271 434,634 434,1313 q 0,446 256,755 257,310 713,416 z m -231,997 q 0,-362 226,-565 227,-203 636,-203 407,0 636,203 230,203 230,565 0,363 -230,566 -229,203 -636,203 -409,0 -636,-203 -226,-203 -226,-566 z"
               id="path11763"
               transform="scale(0.015625)" />
          </defs>
          <use
             xlink:href="#DejaVuSans-30-0"
             id="use11405"
             x="0"
             y="0"
             width="100%"
             height="100%" />
          <use
             x="63.623047"
             xlink:href="#DejaVuSans-2e-8"
             id="use11407"
             y="0"
             width="100%"
             height="100%" />
          <use
             x="95.410156"
             xlink:href="#DejaVuSans-38-7"
             id="use11409"
             y="0"
             width="100%"
             height="100%" />
        </g>
      </g>
    </g>
    <g
       id="ytick_6"
       transform="matrix(0.35277778,0,0,0.35277778,-15.72823,14.725176)">
      <g
         id="line2d_8">
        <g
           id="g11417">
          <use
             style="stroke:#000000;stroke-width:0.8"
             x="54"
             xlink:href="#m8bceb0e391-4"
             y="104.7341"
             id="use11415"
             width="100%"
             height="100%" />
        </g>
      </g>
      <g
         id="text_8">
        <!-- 1.0 -->
        <g
           transform="matrix(0.1,0,0,-0.1,31.096875,108.53332)"
           id="g11426">
          <use
             xlink:href="#DejaVuSans-31-6"
             id="use11420"
             x="0"
             y="0"
             width="100%"
             height="100%" />
          <use
             x="63.623047"
             xlink:href="#DejaVuSans-2e-8"
             id="use11422"
             y="0"
             width="100%"
             height="100%" />
          <use
             x="95.410156"
             xlink:href="#DejaVuSans-30-0"
             id="use11424"
             y="0"
             width="100%"
             height="100%" />
        </g>
      </g>
    </g>
    <g
       id="ytick_7"
       transform="matrix(0.35277778,0,0,0.35277778,-15.72823,14.725176)">
      <g
         id="line2d_9">
        <g
           id="g11432">
          <use
             style="stroke:#000000;stroke-width:0.8"
             x="54"
             xlink:href="#m8bceb0e391-4"
             y="75.542763"
             id="use11430"
             width="100%"
             height="100%" />
        </g>
      </g>
      <g
         id="text_9">
        <!-- 1.2 -->
        <g
           transform="matrix(0.1,0,0,-0.1,31.096875,79.34198)"
           id="g11441">
          <use
             xlink:href="#DejaVuSans-31-6"
             id="use11435"
             x="0"
             y="0"
             width="100%"
             height="100%" />
          <use
             x="63.623047"
             xlink:href="#DejaVuSans-2e-8"
             id="use11437"
             y="0"
             width="100%"
             height="100%" />
          <use
             x="95.410156"
             xlink:href="#DejaVuSans-32-7"
             id="use11439"
             y="0"
             width="100%"
             height="100%" />
        </g>
      </g>
    </g>
    <g
       id="ytick_8"
       transform="matrix(0.35277778,0,0,0.35277778,-15.72823,14.725176)">
      <g
         id="line2d_10">
        <g
           id="g11447">
          <use
             style="stroke:#000000;stroke-width:0.8"
             x="54"
             xlink:href="#m8bceb0e391-4"
             y="46.351421"
             id="use11445"
             width="100%"
             height="100%" />
        </g>
      </g>
      <g
         id="text_10">
        <!-- 1.4 -->
        <g
           transform="matrix(0.1,0,0,-0.1,31.096875,50.150641)"
           id="g11456">
          <use
             xlink:href="#DejaVuSans-31-6"
             id="use11450"
             x="0"
             y="0"
             width="100%"
             height="100%" />
          <use
             x="63.623047"
             xlink:href="#DejaVuSans-2e-8"
             id="use11452"
             y="0"
             width="100%"
             height="100%" />
          <use
             x="95.410156"
             xlink:href="#DejaVuSans-34-8"
             id="use11454"
             y="0"
             width="100%"
             height="100%" />
        </g>
      </g>
    </g>
    <g
       id="text_11"
       transform="matrix(0.35277778,0,0,0.35277778,-15.72823,14.725176)">
      <!-- Bandwidth [M bit/sec] -->
      <g
         transform="matrix(0,-0.1,-0.1,0,25.017187,197.93078)"
         id="g11521">
        <defs
           id="defs11477">
          <path
             d="M 1259,2228 V 519 h 1013 q 509,0 754,211 246,211 246,645 0,438 -246,645 -245,208 -754,208 z m 0,1919 V 2741 h 935 q 462,0 688,173 227,174 227,530 0,353 -227,528 -226,175 -688,175 z m -631,519 h 1613 q 722,0 1112,-300 391,-300 391,-853 0,-429 -200,-682 -200,-253 -588,-315 466,-100 724,-418 258,-317 258,-792 0,-625 -425,-966 Q 3088,0 2303,0 H 628 Z"
             id="path11799"
             transform="scale(0.015625)" />
          <path
             d="m 2194,1759 q -697,0 -966,-159 -269,-159 -269,-544 0,-306 202,-486 202,-179 548,-179 479,0 768,339 289,339 289,901 v 128 z m 1147,238 V 0 H 2766 V 531 Q 2569,213 2275,61 1981,-91 1556,-91 q -537,0 -855,302 -317,302 -317,808 0,590 395,890 396,300 1180,300 h 807 v 57 q 0,397 -261,614 -261,217 -733,217 -300,0 -585,-72 -284,-72 -546,-216 v 532 q 315,122 612,182 297,61 578,61 760,0 1135,-394 375,-393 375,-1193 z"
             id="path11801"
             transform="scale(0.015625)" />
          <path
             d="M 3513,2113 V 0 h -575 v 2094 q 0,497 -194,743 -194,247 -581,247 -466,0 -735,-297 -269,-296 -269,-809 V 0 H 581 v 3500 h 578 v -544 q 207,316 486,472 280,156 646,156 603,0 912,-373 310,-373 310,-1098 z"
             id="path11803"
             transform="scale(0.015625)" />
          <path
             d="m 2906,2969 v 1894 h 575 V 0 H 2906 V 525 Q 2725,213 2448,61 2172,-91 1784,-91 1150,-91 751,415 353,922 353,1747 q 0,825 398,1331 399,506 1033,506 388,0 664,-152 277,-151 458,-463 z M 947,1747 q 0,-634 261,-995 261,-361 717,-361 456,0 718,361 263,361 263,995 0,634 -263,995 -262,361 -718,361 -456,0 -717,-361 -261,-361 -261,-995 z"
             id="path11805"
             transform="scale(0.015625)" />
          <path
             d="m 269,3500 h 575 l 719,-2731 715,2731 h 678 l 719,-2731 716,2731 h 575 L 4050,0 H 3372 L 2619,2869 1863,0 h -679 z"
             id="path11807"
             transform="scale(0.015625)" />
          <path
             d="m 603,3500 h 575 V 0 H 603 Z m 0,1363 h 575 V 4134 H 603 Z"
             id="path11809"
             transform="scale(0.015625)" />
          <path
             d="M 1172,4494 V 3500 H 2356 V 3053 H 1172 V 1153 q 0,-428 117,-550 117,-122 477,-122 h 590 V 0 H 1766 Q 1100,0 847,248 594,497 594,1153 V 3053 H 172 v 447 h 422 v 994 z"
             id="path11811"
             transform="scale(0.015625)" />
          <path
             d="M 3513,2113 V 0 h -575 v 2094 q 0,497 -194,743 -194,247 -581,247 -466,0 -735,-297 -269,-296 -269,-809 V 0 H 581 v 4863 h 578 V 2956 q 207,316 486,472 280,156 646,156 603,0 912,-373 310,-373 310,-1098 z"
             id="path11813"
             transform="scale(0.015625)" />
          <path
             id="path11815"
             transform="scale(0.015625)"
             d="" />
          <path
             d="M 550,4863 H 1875 V 4416 H 1125 V -397 h 750 V -844 H 550 Z"
             id="path11817"
             transform="scale(0.015625)" />
          <path
             d="m 628,4666 h 941 L 2759,1491 3956,4666 h 941 V 0 H 4281 V 4097 L 3078,897 H 2444 L 1241,4097 V 0 H 628 Z"
             id="path11819"
             transform="scale(0.015625)" />
          <path
             d="m 3116,1747 q 0,634 -261,995 -261,361 -717,361 -457,0 -718,-361 -261,-361 -261,-995 0,-634 261,-995 261,-361 718,-361 456,0 717,361 261,361 261,995 z M 1159,2969 q 182,312 458,463 277,152 661,152 638,0 1036,-506 399,-506 399,-1331 Q 3713,922 3314,415 2916,-91 2278,-91 1894,-91 1617,61 1341,213 1159,525 V 0 H 581 v 4863 h 578 z"
             id="path11821"
             transform="scale(0.015625)" />
          <path
             d="m 1625,4666 h 531 L 531,-594 H 0 Z"
             id="path11823"
             transform="scale(0.015625)" />
          <path
             d="m 2834,3397 v -544 q -243,125 -506,187 -262,63 -544,63 -428,0 -642,-131 -214,-131 -214,-394 0,-200 153,-314 153,-114 616,-217 l 197,-44 q 612,-131 870,-370 258,-239 258,-667 0,-488 -386,-773 Q 2250,-91 1575,-91 1294,-91 989,-36 684,19 347,128 v 594 q 319,-166 628,-249 309,-82 613,-82 406,0 624,139 219,139 219,392 0,234 -158,359 -157,125 -692,241 l -200,47 q -534,112 -772,345 -237,233 -237,639 0,494 350,762 350,269 994,269 318,0 599,-47 282,-46 519,-140 z"
             id="path11825"
             transform="scale(0.015625)" />
          <path
             d="M 3597,1894 V 1613 H 953 q 38,-594 358,-905 320,-311 892,-311 331,0 642,81 311,81 618,244 V 178 Q 3153,47 2828,-22 2503,-91 2169,-91 1331,-91 842,396 353,884 353,1716 q 0,859 464,1363 464,505 1252,505 706,0 1117,-455 411,-454 411,-1235 z m -575,169 q -6,471 -264,752 -258,282 -683,282 -481,0 -770,-272 -289,-272 -333,-766 z"
             id="path11827"
             transform="scale(0.015625)" />
          <path
             d="m 3122,3366 v -538 q -244,135 -489,202 -245,67 -495,67 -560,0 -870,-355 -309,-354 -309,-995 0,-641 309,-996 310,-354 870,-354 250,0 495,67 245,67 489,202 V 134 Q 2881,22 2623,-34 2366,-91 2075,-91 1284,-91 818,406 353,903 353,1747 q 0,856 470,1346 471,491 1290,491 265,0 518,-55 253,-54 491,-163 z"
             id="path11829"
             transform="scale(0.015625)" />
          <path
             d="M 1947,4863 V -844 H 622 v 447 h 747 V 4416 H 622 v 447 z"
             id="path11831"
             transform="scale(0.015625)" />
        </defs>
        <use
           xlink:href="#DejaVuSans-42-0"
           id="use11479"
           x="0"
           y="0"
           width="100%"
           height="100%" />
        <use
           x="68.603516"
           xlink:href="#DejaVuSans-61-3"
           id="use11481"
           y="0"
           width="100%"
           height="100%" />
        <use
           x="129.88281"
           xlink:href="#DejaVuSans-6e-75"
           id="use11483"
           y="0"
           width="100%"
           height="100%" />
        <use
           x="193.26172"
           xlink:href="#DejaVuSans-64-6"
           id="use11485"
           y="0"
           width="100%"
           height="100%" />
        <use
           x="256.73828"
           xlink:href="#DejaVuSans-77-4"
           id="use11487"
           y="0"
           width="100%"
           height="100%" />
        <use
           x="338.52539"
           xlink:href="#DejaVuSans-69-9"
           id="use11489"
           y="0"
           width="100%"
           height="100%" />
        <use
           x="366.30859"
           xlink:href="#DejaVuSans-64-6"
           id="use11491"
           y="0"
           width="100%"
           height="100%" />
        <use
           x="429.78516"
           xlink:href="#DejaVuSans-74-5"
           id="use11493"
           y="0"
           width="100%"
           height="100%" />
        <use
           x="468.99414"
           xlink:href="#DejaVuSans-68-7"
           id="use11495"
           y="0"
           width="100%"
           height="100%" />
        <use
           x="532.37305"
           xlink:href="#DejaVuSans-20-6"
           id="use11497"
           y="0"
           width="100%"
           height="100%" />
        <use
           x="564.16016"
           xlink:href="#DejaVuSans-5b-2"
           id="use11499"
           y="0"
           width="100%"
           height="100%" />
        <use
           x="603.17383"
           xlink:href="#DejaVuSans-4d-5"
           id="use11501"
           y="0"
           width="100%"
           height="100%" />
        <use
           x="689.45312"
           xlink:href="#DejaVuSans-20-6"
           id="use11503"
           y="0"
           width="100%"
           height="100%" />
        <use
           x="721.24023"
           xlink:href="#DejaVuSans-62-0"
           id="use11505"
           y="0"
           width="100%"
           height="100%" />
        <use
           x="784.7168"
           xlink:href="#DejaVuSans-69-9"
           id="use11507"
           y="0"
           width="100%"
           height="100%" />
        <use
           x="812.5"
           xlink:href="#DejaVuSans-74-5"
           id="use11509"
           y="0"
           width="100%"
           height="100%" />
        <use
           x="851.70898"
           xlink:href="#DejaVuSans-2f-7"
           id="use11511"
           y="0"
           width="100%"
           height="100%" />
        <use
           x="885.40039"
           xlink:href="#DejaVuSans-73-4"
           id="use11513"
           y="0"
           width="100%"
           height="100%" />
        <use
           x="937.5"
           xlink:href="#DejaVuSans-65-6"
           id="use11515"
           y="0"
           width="100%"
           height="100%" />
        <use
           x="999.02344"
           xlink:href="#DejaVuSans-63-7"
           id="use11517"
           y="0"
           width="100%"
           height="100%" />
        <use
           x="1054.0039"
           xlink:href="#DejaVuSans-5d-2"
           id="use11519"
           y="0"
           width="100%"
           height="100%" />
      </g>
    </g>
  </g>
</svg>
